<svg version="1.1" viewBox="0.0 0.0 574.9816272965879 528.4593175853018" fill="none" stroke="none" stroke-linecap="square" stroke-miterlimit="10" xmlns:xlink="http://www.w3.org/1999/xlink" xmlns="http://www.w3.org/2000/svg"><clipPath id="p.0"><path d="m0 0l574.9816 0l0 528.4593l-574.9816 0l0 -528.4593z" clip-rule="nonzero"/></clipPath><g clip-path="url(#p.0)"><path fill="#000000" fill-opacity="0.0" d="m0 0l574.9816 0l0 528.4593l-574.9816 0z" fill-rule="evenodd"/><path fill="#f1c232" d="m0 400.41995l217.25984 0l0 130.11026l-217.25984 0z" fill-rule="evenodd"/><path fill="#ffffff" d="m82.420685 418.6138q-0.125 -0.125 -0.46875 -0.34375q-0.34375 -0.234375 -0.84375 -0.4375q-0.484375 -0.21875 -1.0625 -0.359375q-0.578125 -0.15625 -1.1875 -0.15625q-1.0625 0 -1.59375 0.390625q-0.515625 0.390625 -0.515625 1.09375q0 0.421875 0.203125 0.6875q0.203125 0.265625 0.5625 0.46875q0.375 0.203125 0.9375 0.375q0.578125 0.171875 1.328125 0.359375q0.96875 0.265625 1.75 0.5625q0.796875 0.296875 1.34375 0.75q0.5625 0.4375 0.859375 1.0625q0.296875 0.625 0.296875 1.546875q0 1.0625 -0.40625 1.8125q-0.390625 0.75 -1.078125 1.21875q-0.671875 0.46875 -1.5625 0.6875q-0.890625 0.21875 -1.859375 0.21875q-1.484375 0 -2.953125 -0.453125q-1.453125 -0.453125 -2.609375 -1.265625l1.140625 -2.21875q0.171875 0.15625 0.609375 0.4375q0.4375 0.265625 1.03125 0.546875q0.59375 0.265625 1.328125 0.453125q0.734375 0.171875 1.484375 0.171875q2.140625 0 2.140625 -1.359375q0 -0.421875 -0.25 -0.71875q-0.234375 -0.296875 -0.6875 -0.515625q-0.453125 -0.234375 -1.09375 -0.421875q-0.625 -0.1875 -1.40625 -0.40625q-0.953125 -0.265625 -1.65625 -0.5625q-0.703125 -0.3125 -1.171875 -0.734375q-0.453125 -0.421875 -0.6875 -0.96875q-0.234375 -0.546875 -0.234375 -1.3125q0 -1.015625 0.375 -1.796875q0.375 -0.78125 1.03125 -1.296875q0.65625 -0.53125 1.53125 -0.796875q0.890625 -0.28125 1.890625 -0.28125q1.40625 0 2.578125 0.4375q1.171875 0.4375 2.046875 1.046875l-1.140625 2.078125zm7.8425293 9.96875q-1.171875 0 -2.125 -0.390625q-0.953125 -0.40625 -1.625 -1.09375q-0.671875 -0.703125 -1.046875 -1.609375q-0.359375 -0.921875 -0.359375 -1.921875q0 -1.046875 0.359375 -1.96875q0.359375 -0.921875 1.03125 -1.625q0.671875 -0.703125 1.625 -1.109375q0.96875 -0.40625 2.15625 -0.40625q1.203125 0 2.140625 0.40625q0.9375 0.40625 1.59375 1.09375q0.671875 0.6875 1.015625 1.609375q0.34375 0.921875 0.34375 1.90625q0 0.234375 -0.015625 0.46875q0 0.21875 -0.03125 0.375l-7.5625 0q0.0625 0.578125 0.28125 1.03125q0.21875 0.4375 0.578125 0.75q0.359375 0.3125 0.796875 0.484375q0.453125 0.171875 0.9375 0.171875q0.75 0 1.40625 -0.359375q0.65625 -0.375 0.90625 -0.96875l2.140625 0.59375q-0.53125 1.125 -1.71875 1.84375q-1.1875 0.71875 -2.828125 0.71875zm2.53125 -5.890625q-0.09375 -1.109375 -0.8125 -1.765625q-0.71875 -0.671875 -1.734375 -0.671875q-0.5 0 -0.953125 0.1875q-0.4375 0.171875 -0.78125 0.5q-0.328125 0.3125 -0.546875 0.765625q-0.203125 0.4375 -0.234375 0.984375l5.0625 0zm13.19072 5.703125l-2.5 0l0 -5.484375q0 -1.171875 -0.40625 -1.71875q-0.40625 -0.546875 -1.140625 -0.546875q-0.375 0 -0.765625 0.15625q-0.390625 0.15625 -0.734375 0.421875q-0.34375 0.265625 -0.625 0.640625q-0.28125 0.375 -0.40625 0.828125l0 5.703125l-2.5 0l0 -9.78125l2.25 0l0 1.8125q0.546875 -0.9375 1.5625 -1.453125q1.03125 -0.515625 2.328125 -0.515625q0.90625 0 1.484375 0.34375q0.578125 0.328125 0.890625 0.875q0.328125 0.53125 0.4375 1.21875q0.125 0.6875 0.125 1.40625l0 6.09375zm5.8777466 0.1875q-1.234375 0 -2.40625 -0.390625q-1.171875 -0.390625 -2.015625 -1.125l0.9375 -1.5625q0.890625 0.640625 1.734375 0.96875q0.859375 0.3125 1.703125 0.3125q0.734375 0 1.15625 -0.28125q0.4375 -0.28125 0.4375 -0.796875q0 -0.515625 -0.5 -0.75q-0.5 -0.25 -1.640625 -0.578125q-0.953125 -0.25 -1.625 -0.484375q-0.671875 -0.25 -1.078125 -0.5625q-0.40625 -0.3125 -0.59375 -0.703125q-0.1875 -0.40625 -0.1875 -0.96875q0 -0.75 0.28125 -1.34375q0.296875 -0.59375 0.8125 -1.015625q0.53125 -0.421875 1.21875 -0.640625q0.703125 -0.234375 1.53125 -0.234375q1.09375 0 2.046875 0.328125q0.96875 0.3125 1.765625 1.015625l-1.0 1.515625q-0.75 -0.5625 -1.453125 -0.8125q-0.6875 -0.265625 -1.375 -0.265625q-0.640625 0 -1.078125 0.265625q-0.421875 0.25 -0.421875 0.828125q0 0.265625 0.09375 0.4375q0.109375 0.15625 0.328125 0.296875q0.234375 0.125 0.59375 0.25q0.359375 0.125 0.90625 0.25q1.0 0.265625 1.71875 0.53125q0.71875 0.25 1.171875 0.59375q0.46875 0.328125 0.671875 0.765625q0.21875 0.4375 0.21875 1.0625q0 1.4375 -1.0625 2.265625q-1.0625 0.828125 -2.890625 0.828125zm10.100281 0q-1.203125 0 -2.15625 -0.40625q-0.9375 -0.421875 -1.609375 -1.109375q-0.65625 -0.703125 -1.015625 -1.609375q-0.359375 -0.921875 -0.359375 -1.9375q0 -1.015625 0.359375 -1.921875q0.359375 -0.921875 1.015625 -1.625q0.671875 -0.703125 1.609375 -1.109375q0.953125 -0.40625 2.15625 -0.40625q1.1875 0 2.125 0.40625q0.953125 0.40625 1.609375 1.109375q0.671875 0.703125 1.015625 1.625q0.359375 0.90625 0.359375 1.921875q0 1.015625 -0.359375 1.9375q-0.34375 0.90625 -1.0 1.609375q-0.65625 0.6875 -1.609375 1.109375q-0.953125 0.40625 -2.140625 0.40625zm-2.5625 -5.0625q0 0.65625 0.1875 1.1875q0.203125 0.53125 0.546875 0.921875q0.34375 0.390625 0.8125 0.609375q0.46875 0.21875 1.015625 0.21875q0.53125 0 1.0 -0.21875q0.46875 -0.21875 0.8125 -0.609375q0.34375 -0.390625 0.53125 -0.921875q0.203125 -0.546875 0.203125 -1.203125q0 -0.625 -0.203125 -1.171875q-0.1875 -0.546875 -0.53125 -0.9375q-0.34375 -0.390625 -0.8125 -0.59375q-0.46875 -0.21875 -1.0 -0.21875q-0.546875 0 -1.015625 0.21875q-0.46875 0.21875 -0.8125 0.625q-0.34375 0.390625 -0.546875 0.9375q-0.1875 0.53125 -0.1875 1.15625zm15.16507 -2.734375q-1.125 0.015625 -2.03125 0.4375q-0.890625 0.421875 -1.28125 1.265625l0 5.90625l-2.5 0l0 -9.78125l2.296875 0l0 2.09375q0.25 -0.5 0.609375 -0.90625q0.359375 -0.40625 0.765625 -0.703125q0.40625 -0.296875 0.828125 -0.453125q0.421875 -0.15625 0.8125 -0.15625q0.203125 0 0.296875 0q0.109375 0 0.203125 0.015625l0 2.28125zm5.0949707 7.796875q-1.234375 0 -2.40625 -0.390625q-1.171875 -0.390625 -2.015625 -1.125l0.9375 -1.5625q0.890625 0.640625 1.734375 0.96875q0.859375 0.3125 1.703125 0.3125q0.734375 0 1.15625 -0.28125q0.4375 -0.28125 0.4375 -0.796875q0 -0.515625 -0.5 -0.75q-0.5 -0.25 -1.640625 -0.578125q-0.953125 -0.25 -1.625 -0.484375q-0.671875 -0.25 -1.078125 -0.5625q-0.40625 -0.3125 -0.59375 -0.703125q-0.1875 -0.40625 -0.1875 -0.96875q0 -0.75 0.28125 -1.34375q0.296875 -0.59375 0.8125 -1.015625q0.53125 -0.421875 1.21875 -0.640625q0.703125 -0.234375 1.53125 -0.234375q1.09375 0 2.046875 0.328125q0.96875 0.3125 1.765625 1.015625l-1.0 1.515625q-0.75 -0.5625 -1.453125 -0.8125q-0.6875 -0.265625 -1.375 -0.265625q-0.640625 0 -1.078125 0.265625q-0.421875 0.25 -0.421875 0.828125q0 0.265625 0.09375 0.4375q0.109375 0.15625 0.328125 0.296875q0.234375 0.125 0.59375 0.25q0.359375 0.125 0.90625 0.25q1.0 0.265625 1.71875 0.53125q0.71875 0.25 1.171875 0.59375q0.46875 0.328125 0.671875 0.765625q0.21875 0.4375 0.21875 1.0625q0 1.4375 -1.0625 2.265625q-1.0625 0.828125 -2.890625 0.828125z" fill-rule="nonzero"/><path fill="#ffffff" d="m27.372177 441.1138q1.0 0 1.96875 0.53125q0.96875 0.515625 1.5 1.484375q0.53125 0.96875 0.53125 2.0q0 1.671875 -1.171875 2.84375q-1.171875 1.171875 -2.828125 1.171875q-1.671875 0 -2.84375 -1.171875q-1.171875 -1.171875 -1.171875 -2.84375q0 -1.046875 0.53125 -2.0q0.546875 -0.96875 1.5 -1.484375q0.96875 -0.53125 1.984375 -0.53125z" fill-rule="nonzero"/><path fill="#ffffff" d="m58.65625 450.39505l0 -13.25l8.703125 0l0 1.15625l-7.390625 0l0 4.875l6.234375 0l0 1.078125l-6.234375 0l0 6.140625l-1.3125 0zm10.785416 -13.625l1.265625 0l0 11.421875q0 0.546875 0.296875 0.859375q0.3125 0.296875 0.84375 0.296875q0.203125 0 0.484375 -0.046875q0.28125 -0.0625 0.53125 -0.15625l0.21875 1.03125q-0.359375 0.140625 -0.875 0.234375q-0.5 0.09375 -0.875 0.09375q-0.875 0 -1.390625 -0.484375q-0.5 -0.5 -0.5 -1.390625l0 -11.859375zm9.215134 13.8125q-1.0625 0 -1.953125 -0.390625q-0.875 -0.40625 -1.53125 -1.109375q-0.65625 -0.703125 -1.015625 -1.609375q-0.359375 -0.921875 -0.359375 -1.96875q0 -1.015625 0.359375 -1.921875q0.359375 -0.90625 1.0 -1.578125q0.65625 -0.6875 1.546875 -1.09375q0.890625 -0.40625 1.9375 -0.40625q1.0625 0 1.9375 0.40625q0.890625 0.40625 1.53125 1.09375q0.640625 0.6875 0.984375 1.59375q0.359375 0.890625 0.359375 1.890625q0 0.15625 0 0.3125q0 0.140625 -0.015625 0.1875l-8.328125 0q0.0625 0.78125 0.359375 1.453125q0.3125 0.65625 0.796875 1.140625q0.484375 0.484375 1.109375 0.765625q0.625 0.265625 1.34375 0.265625q0.46875 0 0.921875 -0.125q0.46875 -0.140625 0.859375 -0.359375q0.390625 -0.234375 0.703125 -0.546875q0.328125 -0.328125 0.5 -0.71875l1.09375 0.296875q-0.21875 0.53125 -0.640625 0.96875q-0.40625 0.4375 -0.953125 0.765625q-0.53125 0.328125 -1.1875 0.5q-0.640625 0.1875 -1.359375 0.1875zm3.578125 -5.5625q-0.046875 -0.78125 -0.359375 -1.421875q-0.3125 -0.640625 -0.78125 -1.109375q-0.46875 -0.46875 -1.09375 -0.734375q-0.625 -0.265625 -1.34375 -0.265625q-0.703125 0 -1.34375 0.265625q-0.625 0.265625 -1.109375 0.734375q-0.46875 0.46875 -0.765625 1.125q-0.28125 0.640625 -0.34375 1.40625l7.140625 0zm3.0653076 -4.34375l2.90625 3.8125l0.15625 0.265625l0.140625 -0.265625l2.921875 -3.8125l1.359375 0l-3.71875 4.890625l3.71875 4.828125l-1.359375 0l-2.921875 -3.78125l-0.140625 -0.265625l-0.15625 0.265625l-2.90625 3.78125l-1.359375 0l3.71875 -4.828125l-3.71875 -4.890625l1.359375 0zm17.14447 9.90625q-1.140625 0 -2.21875 -0.375q-1.078125 -0.375 -1.859375 -1.078125l0.578125 -0.859375q0.8125 0.671875 1.65625 1.015625q0.859375 0.328125 1.828125 0.328125q1.171875 0 1.875 -0.46875q0.703125 -0.484375 0.703125 -1.359375q0 -0.40625 -0.1875 -0.671875q-0.1875 -0.28125 -0.5625 -0.484375q-0.359375 -0.203125 -0.90625 -0.359375q-0.546875 -0.171875 -1.28125 -0.328125q-0.828125 -0.21875 -1.453125 -0.421875q-0.609375 -0.203125 -1.015625 -0.453125q-0.40625 -0.265625 -0.609375 -0.640625q-0.1875 -0.390625 -0.1875 -0.96875q0 -0.734375 0.28125 -1.28125q0.296875 -0.5625 0.796875 -0.921875q0.5 -0.375 1.15625 -0.5625q0.65625 -0.1875 1.40625 -0.1875q1.125 0 2.03125 0.375q0.921875 0.359375 1.484375 0.953125l-0.625 0.75q-0.53125 -0.5625 -1.3125 -0.84375q-0.78125 -0.28125 -1.609375 -0.28125q-0.515625 0 -0.9375 0.109375q-0.421875 0.09375 -0.75 0.328125q-0.328125 0.21875 -0.515625 0.5625q-0.1875 0.34375 -0.1875 0.8125q0 0.390625 0.125 0.640625q0.140625 0.234375 0.4375 0.421875q0.296875 0.171875 0.75 0.3125q0.453125 0.140625 1.109375 0.28125q0.9375 0.21875 1.640625 0.453125q0.71875 0.21875 1.1875 0.515625q0.46875 0.296875 0.703125 0.734375q0.25 0.421875 0.25 1.046875q0 1.34375 -1.03125 2.125q-1.015625 0.78125 -2.75 0.78125zm10.054352 0q-1.0625 0 -1.953125 -0.390625q-0.875 -0.40625 -1.53125 -1.109375q-0.65625 -0.703125 -1.015625 -1.609375q-0.359375 -0.921875 -0.359375 -1.96875q0 -1.015625 0.359375 -1.921875q0.359375 -0.90625 1.0 -1.578125q0.65625 -0.6875 1.546875 -1.09375q0.890625 -0.40625 1.9375 -0.40625q1.0625 0 1.9375 0.40625q0.890625 0.40625 1.53125 1.09375q0.640625 0.6875 0.984375 1.59375q0.359375 0.890625 0.359375 1.890625q0 0.15625 0 0.3125q0 0.140625 -0.015625 0.1875l-8.328125 0q0.0625 0.78125 0.359375 1.453125q0.3125 0.65625 0.796875 1.140625q0.484375 0.484375 1.109375 0.765625q0.625 0.265625 1.34375 0.265625q0.46875 0 0.921875 -0.125q0.46875 -0.140625 0.859375 -0.359375q0.390625 -0.234375 0.703125 -0.546875q0.328125 -0.328125 0.5 -0.71875l1.09375 0.296875q-0.21875 0.53125 -0.640625 0.96875q-0.40625 0.4375 -0.953125 0.765625q-0.53125 0.328125 -1.1875 0.5q-0.640625 0.1875 -1.359375 0.1875zm3.578125 -5.5625q-0.046875 -0.78125 -0.359375 -1.421875q-0.3125 -0.640625 -0.78125 -1.109375q-0.46875 -0.46875 -1.09375 -0.734375q-0.625 -0.265625 -1.34375 -0.265625q-0.703125 0 -1.34375 0.265625q-0.625 0.265625 -1.109375 0.734375q-0.46875 0.46875 -0.765625 1.125q-0.28125 0.640625 -0.34375 1.40625l7.140625 0zm11.357468 5.375l-1.28125 0l0 -5.421875q0 -1.734375 -0.515625 -2.515625q-0.5 -0.796875 -1.5625 -0.796875q-0.5625 0 -1.125 0.203125q-0.5625 0.203125 -1.046875 0.578125q-0.46875 0.375 -0.84375 0.890625q-0.375 0.515625 -0.53125 1.109375l0 5.953125l-1.265625 0l0 -9.71875l1.15625 0l0 2.203125q0.59375 -1.0625 1.703125 -1.71875q1.109375 -0.65625 2.40625 -0.65625q0.8125 0 1.359375 0.296875q0.5625 0.296875 0.890625 0.84375q0.34375 0.546875 0.5 1.328125q0.15625 0.78125 0.15625 1.734375l0 5.6875zm5.923477 0.1875q-1.140625 0 -2.21875 -0.375q-1.078125 -0.375 -1.859375 -1.078125l0.578125 -0.859375q0.8125 0.671875 1.65625 1.015625q0.859375 0.328125 1.828125 0.328125q1.171875 0 1.875 -0.46875q0.703125 -0.484375 0.703125 -1.359375q0 -0.40625 -0.1875 -0.671875q-0.1875 -0.28125 -0.5625 -0.484375q-0.359375 -0.203125 -0.90625 -0.359375q-0.546875 -0.171875 -1.28125 -0.328125q-0.828125 -0.21875 -1.453125 -0.421875q-0.609375 -0.203125 -1.015625 -0.453125q-0.40625 -0.265625 -0.609375 -0.640625q-0.1875 -0.390625 -0.1875 -0.96875q0 -0.734375 0.28125 -1.28125q0.296875 -0.5625 0.796875 -0.921875q0.5 -0.375 1.15625 -0.5625q0.65625 -0.1875 1.40625 -0.1875q1.125 0 2.03125 0.375q0.921875 0.359375 1.484375 0.953125l-0.625 0.75q-0.53125 -0.5625 -1.3125 -0.84375q-0.78125 -0.28125 -1.609375 -0.28125q-0.515625 0 -0.9375 0.109375q-0.421875 0.09375 -0.75 0.328125q-0.328125 0.21875 -0.515625 0.5625q-0.1875 0.34375 -0.1875 0.8125q0 0.390625 0.125 0.640625q0.140625 0.234375 0.4375 0.421875q0.296875 0.171875 0.75 0.3125q0.453125 0.140625 1.109375 0.28125q0.9375 0.21875 1.640625 0.453125q0.71875 0.21875 1.1875 0.515625q0.46875 0.296875 0.703125 0.734375q0.25 0.421875 0.25 1.046875q0 1.34375 -1.03125 2.125q-1.015625 0.78125 -2.75 0.78125zm10.007477 0q-1.0625 0 -1.953125 -0.390625q-0.875 -0.40625 -1.515625 -1.09375q-0.640625 -0.703125 -1.0 -1.609375q-0.34375 -0.921875 -0.34375 -1.921875q0 -1.03125 0.359375 -1.9375q0.359375 -0.921875 1.0 -1.609375q0.65625 -0.6875 1.53125 -1.09375q0.875 -0.421875 1.921875 -0.421875q1.03125 0 1.921875 0.421875q0.890625 0.40625 1.53125 1.09375q0.640625 0.6875 1.0 1.609375q0.375 0.90625 0.375 1.9375q0 1.0 -0.359375 1.921875q-0.359375 0.90625 -1.0 1.609375q-0.640625 0.6875 -1.53125 1.09375q-0.875 0.390625 -1.9375 0.390625zm-3.53125 -5.0q0 0.8125 0.28125 1.515625q0.28125 0.703125 0.75 1.234375q0.484375 0.53125 1.125 0.828125q0.640625 0.296875 1.375 0.296875q0.71875 0 1.359375 -0.296875q0.65625 -0.3125 1.140625 -0.84375q0.484375 -0.53125 0.75 -1.234375q0.28125 -0.71875 0.28125 -1.53125q0 -0.8125 -0.28125 -1.53125q-0.265625 -0.71875 -0.75 -1.25q-0.484375 -0.53125 -1.140625 -0.828125q-0.640625 -0.3125 -1.359375 -0.3125q-0.734375 0 -1.375 0.3125q-0.625 0.296875 -1.109375 0.84375q-0.484375 0.53125 -0.765625 1.25q-0.28125 0.71875 -0.28125 1.546875zm15.334839 -3.78125q-1.28125 0.03125 -2.234375 0.703125q-0.953125 0.671875 -1.34375 1.84375l0 6.046875l-1.265625 0l0 -9.71875l1.1875 0l0 2.328125q0.546875 -1.109375 1.453125 -1.75q0.921875 -0.640625 1.953125 -0.640625q0.15625 0 0.25 0.03125l0 1.15625zm4.92334 8.78125q-1.140625 0 -2.21875 -0.375q-1.078125 -0.375 -1.859375 -1.078125l0.578125 -0.859375q0.8125 0.671875 1.65625 1.015625q0.859375 0.328125 1.828125 0.328125q1.171875 0 1.875 -0.46875q0.703125 -0.484375 0.703125 -1.359375q0 -0.40625 -0.1875 -0.671875q-0.1875 -0.28125 -0.5625 -0.484375q-0.359375 -0.203125 -0.90625 -0.359375q-0.546875 -0.171875 -1.28125 -0.328125q-0.828125 -0.21875 -1.453125 -0.421875q-0.609375 -0.203125 -1.015625 -0.453125q-0.40625 -0.265625 -0.609375 -0.640625q-0.1875 -0.390625 -0.1875 -0.96875q0 -0.734375 0.28125 -1.28125q0.296875 -0.5625 0.796875 -0.921875q0.5 -0.375 1.15625 -0.5625q0.65625 -0.1875 1.40625 -0.1875q1.125 0 2.03125 0.375q0.921875 0.359375 1.484375 0.953125l-0.625 0.75q-0.53125 -0.5625 -1.3125 -0.84375q-0.78125 -0.28125 -1.609375 -0.28125q-0.515625 0 -0.9375 0.109375q-0.421875 0.09375 -0.75 0.328125q-0.328125 0.21875 -0.515625 0.5625q-0.1875 0.34375 -0.1875 0.8125q0 0.390625 0.125 0.640625q0.140625 0.234375 0.4375 0.421875q0.296875 0.171875 0.75 0.3125q0.453125 0.140625 1.109375 0.28125q0.9375 0.21875 1.640625 0.453125q0.71875 0.21875 1.1875 0.515625q0.46875 0.296875 0.703125 0.734375q0.25 0.421875 0.25 1.046875q0 1.34375 -1.03125 2.125q-1.015625 0.78125 -2.75 0.78125z" fill-rule="nonzero"/><path fill="#ffffff" d="m27.372177 463.1138q1.0 0 1.96875 0.53125q0.96875 0.515625 1.5 1.484375q0.53125 0.96875 0.53125 2.0q0 1.671875 -1.171875 2.84375q-1.171875 1.171875 -2.828125 1.171875q-1.671875 0 -2.84375 -1.171875q-1.171875 -1.171875 -1.171875 -2.84375q0 -1.046875 0.53125 -2.0q0.546875 -0.96875 1.5 -1.484375q0.96875 -0.53125 1.984375 -0.53125z" fill-rule="nonzero"/><path fill="#ffffff" d="m62.765625 459.14505l1.09375 0l5.515625 13.25l-1.390625 0l-1.71875 -4.140625l-5.9375 0l-1.703125 4.140625l-1.40625 0l5.546875 -13.25zm3.203125 8.078125l-2.65625 -6.546875l-2.71875 6.546875l5.375 0zm4.115921 0.28125q0 -1.015625 0.34375 -1.9375q0.359375 -0.921875 1.0 -1.59375q0.640625 -0.6875 1.53125 -1.078125q0.90625 -0.390625 1.984375 -0.390625q1.390625 0 2.40625 0.625q1.03125 0.625 1.546875 1.6875l-1.21875 0.390625q-0.421875 -0.734375 -1.15625 -1.15625q-0.734375 -0.421875 -1.625 -0.421875q-0.75 0 -1.40625 0.296875q-0.640625 0.296875 -1.109375 0.8125q-0.46875 0.515625 -0.75 1.21875q-0.265625 0.703125 -0.265625 1.546875q0 0.828125 0.28125 1.5625q0.28125 0.71875 0.765625 1.25q0.484375 0.53125 1.125 0.84375q0.640625 0.296875 1.375 0.296875q0.46875 0 0.921875 -0.125q0.453125 -0.125 0.84375 -0.359375q0.390625 -0.234375 0.671875 -0.53125q0.28125 -0.296875 0.390625 -0.640625l1.25 0.375q-0.203125 0.515625 -0.59375 0.953125q-0.390625 0.4375 -0.921875 0.765625q-0.53125 0.328125 -1.171875 0.5q-0.640625 0.1875 -1.34375 0.1875q-1.0625 0 -1.953125 -0.390625q-0.890625 -0.40625 -1.546875 -1.109375q-0.65625 -0.703125 -1.015625 -1.609375q-0.359375 -0.921875 -0.359375 -1.96875zm10.148941 0q0 -1.015625 0.34375 -1.9375q0.359375 -0.921875 1.0 -1.59375q0.640625 -0.6875 1.53125 -1.078125q0.90625 -0.390625 1.984375 -0.390625q1.390625 0 2.40625 0.625q1.03125 0.625 1.546875 1.6875l-1.21875 0.390625q-0.421875 -0.734375 -1.15625 -1.15625q-0.734375 -0.421875 -1.625 -0.421875q-0.75 0 -1.40625 0.296875q-0.640625 0.296875 -1.109375 0.8125q-0.46875 0.515625 -0.75 1.21875q-0.265625 0.703125 -0.265625 1.546875q0 0.828125 0.28125 1.5625q0.28125 0.71875 0.765625 1.25q0.484375 0.53125 1.125 0.84375q0.640625 0.296875 1.375 0.296875q0.46875 0 0.921875 -0.125q0.453125 -0.125 0.84375 -0.359375q0.390625 -0.234375 0.671875 -0.53125q0.28125 -0.296875 0.390625 -0.640625l1.25 0.375q-0.203125 0.515625 -0.59375 0.953125q-0.390625 0.4375 -0.921875 0.765625q-0.53125 0.328125 -1.171875 0.5q-0.640625 0.1875 -1.34375 0.1875q-1.0625 0 -1.953125 -0.390625q-0.890625 -0.40625 -1.546875 -1.109375q-0.65625 -0.703125 -1.015625 -1.609375q-0.359375 -0.921875 -0.359375 -1.96875zm15.008316 5.078125q-1.0625 0 -1.953125 -0.390625q-0.875 -0.40625 -1.53125 -1.109375q-0.65625 -0.703125 -1.015625 -1.609375q-0.359375 -0.921875 -0.359375 -1.96875q0 -1.015625 0.359375 -1.921875q0.359375 -0.90625 1.0 -1.578125q0.65625 -0.6875 1.546875 -1.09375q0.890625 -0.40625 1.9375 -0.40625q1.0625 0 1.9375 0.40625q0.890625 0.40625 1.53125 1.09375q0.640625 0.6875 0.984375 1.59375q0.359375 0.890625 0.359375 1.890625q0 0.15625 0 0.3125q0 0.140625 -0.015625 0.1875l-8.328125 0q0.0625 0.78125 0.359375 1.453125q0.3125 0.65625 0.796875 1.140625q0.484375 0.484375 1.109375 0.765625q0.625 0.265625 1.34375 0.265625q0.46875 0 0.921875 -0.125q0.46875 -0.140625 0.859375 -0.359375q0.390625 -0.234375 0.703125 -0.546875q0.328125 -0.328125 0.5 -0.71875l1.09375 0.296875q-0.21875 0.53125 -0.640625 0.96875q-0.40625 0.4375 -0.953125 0.765625q-0.53125 0.328125 -1.1875 0.5q-0.640625 0.1875 -1.359375 0.1875zm3.578125 -5.5625q-0.046875 -0.78125 -0.359375 -1.421875q-0.3125 -0.640625 -0.78125 -1.109375q-0.46875 -0.46875 -1.09375 -0.734375q-0.625 -0.265625 -1.34375 -0.265625q-0.703125 0 -1.34375 0.265625q-0.625 0.265625 -1.109375 0.734375q-0.46875 0.46875 -0.765625 1.125q-0.28125 0.640625 -0.34375 1.40625l7.140625 0zm3.2324677 -8.25l1.265625 0l0 11.421875q0 0.546875 0.296875 0.859375q0.3125 0.296875 0.84375 0.296875q0.203125 0 0.484375 -0.046875q0.28125 -0.0625 0.53125 -0.15625l0.21875 1.03125q-0.359375 0.140625 -0.875 0.234375q-0.5 0.09375 -0.875 0.09375q-0.875 0 -1.390625 -0.484375q-0.5 -0.5 -0.5 -1.390625l0 -11.859375zm9.215134 13.8125q-1.0625 0 -1.953125 -0.390625q-0.875 -0.40625 -1.53125 -1.109375q-0.65625 -0.703125 -1.015625 -1.609375q-0.359375 -0.921875 -0.359375 -1.96875q0 -1.015625 0.359375 -1.921875q0.359375 -0.90625 1.0 -1.578125q0.65625 -0.6875 1.546875 -1.09375q0.890625 -0.40625 1.9375 -0.40625q1.0625 0 1.9375 0.40625q0.890625 0.40625 1.53125 1.09375q0.640625 0.6875 0.984375 1.59375q0.359375 0.890625 0.359375 1.890625q0 0.15625 0 0.3125q0 0.140625 -0.015625 0.1875l-8.328125 0q0.0625 0.78125 0.359375 1.453125q0.3125 0.65625 0.796875 1.140625q0.484375 0.484375 1.109375 0.765625q0.625 0.265625 1.34375 0.265625q0.46875 0 0.921875 -0.125q0.46875 -0.140625 0.859375 -0.359375q0.390625 -0.234375 0.703125 -0.546875q0.328125 -0.328125 0.5 -0.71875l1.09375 0.296875q-0.21875 0.53125 -0.640625 0.96875q-0.40625 0.4375 -0.953125 0.765625q-0.53125 0.328125 -1.1875 0.5q-0.640625 0.1875 -1.359375 0.1875zm3.578125 -5.5625q-0.046875 -0.78125 -0.359375 -1.421875q-0.3125 -0.640625 -0.78125 -1.109375q-0.46875 -0.46875 -1.09375 -0.734375q-0.625 -0.265625 -1.34375 -0.265625q-0.703125 0 -1.34375 0.265625q-0.625 0.265625 -1.109375 0.734375q-0.46875 0.46875 -0.765625 1.125q-0.28125 0.640625 -0.34375 1.40625l7.140625 0zm8.029343 -3.21875q-1.28125 0.03125 -2.234375 0.703125q-0.953125 0.671875 -1.34375 1.84375l0 6.046875l-1.265625 0l0 -9.71875l1.1875 0l0 2.328125q0.546875 -1.109375 1.453125 -1.75q0.921875 -0.640625 1.953125 -0.640625q0.15625 0 0.25 0.03125l0 1.15625zm5.3598785 8.78125q-1.0625 0 -1.953125 -0.390625q-0.875 -0.40625 -1.515625 -1.09375q-0.640625 -0.703125 -1.0 -1.609375q-0.34375 -0.921875 -0.34375 -1.921875q0 -1.03125 0.359375 -1.9375q0.359375 -0.921875 1.0 -1.609375q0.65625 -0.6875 1.53125 -1.09375q0.875 -0.421875 1.921875 -0.421875q1.03125 0 1.921875 0.421875q0.890625 0.40625 1.53125 1.09375q0.640625 0.6875 1.0 1.609375q0.375 0.90625 0.375 1.9375q0 1.0 -0.359375 1.921875q-0.359375 0.90625 -1.0 1.609375q-0.640625 0.6875 -1.53125 1.09375q-0.875 0.390625 -1.9375 0.390625zm-3.53125 -5.0q0 0.8125 0.28125 1.515625q0.28125 0.703125 0.75 1.234375q0.484375 0.53125 1.125 0.828125q0.640625 0.296875 1.375 0.296875q0.71875 0 1.359375 -0.296875q0.65625 -0.3125 1.140625 -0.84375q0.484375 -0.53125 0.75 -1.234375q0.28125 -0.71875 0.28125 -1.53125q0 -0.8125 -0.28125 -1.53125q-0.265625 -0.71875 -0.75 -1.25q-0.484375 -0.53125 -1.140625 -0.828125q-0.640625 -0.3125 -1.359375 -0.3125q-0.734375 0 -1.375 0.3125q-0.625 0.296875 -1.109375 0.84375q-0.484375 0.53125 -0.765625 1.25q-0.28125 0.71875 -0.28125 1.546875zm24.944214 4.8125l-1.265625 0l0 -5.421875q0 -1.703125 -0.546875 -2.5q-0.546875 -0.8125 -1.609375 -0.8125q-0.546875 0 -1.046875 0.203125q-0.5 0.203125 -0.921875 0.578125q-0.40625 0.375 -0.734375 0.890625q-0.3125 0.515625 -0.484375 1.125l0 5.9375l-1.265625 0l0 -5.421875q0 -1.734375 -0.53125 -2.515625q-0.515625 -0.796875 -1.59375 -0.796875q-1.109375 0 -1.96875 0.765625q-0.84375 0.765625 -1.21875 2.015625l0 5.953125l-1.265625 0l0 -9.71875l1.15625 0l0 2.203125q0.59375 -1.125 1.5625 -1.75q0.96875 -0.625 2.140625 -0.625q1.234375 0 1.96875 0.703125q0.734375 0.6875 0.90625 1.796875q1.359375 -2.5 3.75 -2.5q0.828125 0 1.390625 0.296875q0.5625 0.296875 0.90625 0.859375q0.359375 0.546875 0.515625 1.328125q0.15625 0.765625 0.15625 1.71875l0 5.6875zm6.879471 0.1875q-1.0625 0 -1.953125 -0.390625q-0.875 -0.40625 -1.53125 -1.109375q-0.65625 -0.703125 -1.015625 -1.609375q-0.359375 -0.921875 -0.359375 -1.96875q0 -1.015625 0.359375 -1.921875q0.359375 -0.90625 1.0 -1.578125q0.65625 -0.6875 1.546875 -1.09375q0.890625 -0.40625 1.9375 -0.40625q1.0625 0 1.9375 0.40625q0.890625 0.40625 1.53125 1.09375q0.640625 0.6875 0.984375 1.59375q0.359375 0.890625 0.359375 1.890625q0 0.15625 0 0.3125q0 0.140625 -0.015625 0.1875l-8.328125 0q0.0625 0.78125 0.359375 1.453125q0.3125 0.65625 0.796875 1.140625q0.484375 0.484375 1.109375 0.765625q0.625 0.265625 1.34375 0.265625q0.46875 0 0.921875 -0.125q0.46875 -0.140625 0.859375 -0.359375q0.390625 -0.234375 0.703125 -0.546875q0.328125 -0.328125 0.5 -0.71875l1.09375 0.296875q-0.21875 0.53125 -0.640625 0.96875q-0.40625 0.4375 -0.953125 0.765625q-0.53125 0.328125 -1.1875 0.5q-0.640625 0.1875 -1.359375 0.1875zm3.578125 -5.5625q-0.046875 -0.78125 -0.359375 -1.421875q-0.3125 -0.640625 -0.78125 -1.109375q-0.46875 -0.46875 -1.09375 -0.734375q-0.625 -0.265625 -1.34375 -0.265625q-0.703125 0 -1.34375 0.265625q-0.625 0.265625 -1.109375 0.734375q-0.46875 0.46875 -0.765625 1.125q-0.28125 0.640625 -0.34375 1.40625l7.140625 0zm7.7671814 4.90625q-0.109375 0.0625 -0.328125 0.15625q-0.21875 0.09375 -0.5 0.1875q-0.265625 0.09375 -0.625 0.15625q-0.359375 0.078125 -0.75 0.078125q-0.40625 0 -0.78125 -0.109375q-0.375 -0.109375 -0.65625 -0.34375q-0.28125 -0.234375 -0.453125 -0.578125q-0.15625 -0.359375 -0.15625 -0.828125l0 -6.96875l-1.34375 0l0 -1.0l1.34375 0l0 -3.28125l1.265625 0l0 3.28125l2.234375 0l0 1.0l-2.234375 0l0 6.609375q0.03125 0.546875 0.375 0.796875q0.359375 0.25 0.796875 0.25q0.546875 0 0.953125 -0.171875q0.40625 -0.1875 0.53125 -0.265625l0.328125 1.03125zm5.538437 0.65625q-1.0625 0 -1.953125 -0.390625q-0.875 -0.40625 -1.53125 -1.109375q-0.65625 -0.703125 -1.015625 -1.609375q-0.359375 -0.921875 -0.359375 -1.96875q0 -1.015625 0.359375 -1.921875q0.359375 -0.90625 1.0 -1.578125q0.65625 -0.6875 1.546875 -1.09375q0.890625 -0.40625 1.9375 -0.40625q1.0625 0 1.9375 0.40625q0.890625 0.40625 1.53125 1.09375q0.640625 0.6875 0.984375 1.59375q0.359375 0.890625 0.359375 1.890625q0 0.15625 0 0.3125q0 0.140625 -0.015625 0.1875l-8.328125 0q0.0625 0.78125 0.359375 1.453125q0.3125 0.65625 0.796875 1.140625q0.484375 0.484375 1.109375 0.765625q0.625 0.265625 1.34375 0.265625q0.46875 0 0.921875 -0.125q0.46875 -0.140625 0.859375 -0.359375q0.390625 -0.234375 0.703125 -0.546875q0.328125 -0.328125 0.5 -0.71875l1.09375 0.296875q-0.21875 0.53125 -0.640625 0.96875q-0.40625 0.4375 -0.953125 0.765625q-0.53125 0.328125 -1.1875 0.5q-0.640625 0.1875 -1.359375 0.1875zm3.578125 -5.5625q-0.046875 -0.78125 -0.359375 -1.421875q-0.3125 -0.640625 -0.78125 -1.109375q-0.46875 -0.46875 -1.09375 -0.734375q-0.625 -0.265625 -1.34375 -0.265625q-0.703125 0 -1.34375 0.265625q-0.625 0.265625 -1.109375 0.734375q-0.46875 0.46875 -0.765625 1.125q-0.28125 0.640625 -0.34375 1.40625l7.140625 0zm8.029343 -3.21875q-1.28125 0.03125 -2.234375 0.703125q-0.953125 0.671875 -1.34375 1.84375l0 6.046875l-1.265625 0l0 -9.71875l1.1875 0l0 2.328125q0.546875 -1.109375 1.453125 -1.75q0.921875 -0.640625 1.953125 -0.640625q0.15625 0 0.25 0.03125l0 1.15625z" fill-rule="nonzero"/><path fill="#ffffff" d="m27.372177 485.1138q1.0 0 1.96875 0.53125q0.96875 0.515625 1.5 1.484375q0.53125 0.96875 0.53125 2.0q0 1.671875 -1.171875 2.84375q-1.171875 1.171875 -2.828125 1.171875q-1.671875 0 -2.84375 -1.171875q-1.171875 -1.171875 -1.171875 -2.84375q0 -1.046875 0.53125 -2.0q0.546875 -0.96875 1.5 -1.484375q0.96875 -0.53125 1.984375 -0.53125z" fill-rule="nonzero"/><path fill="#ffffff" d="m68.625 490.97318q0 0.75 -0.296875 1.375q-0.296875 0.625 -0.8125 1.09375q-0.5 0.453125 -1.171875 0.703125q-0.671875 0.25 -1.4375 0.25l-6.25 0l0 -13.25l6.390625 0q0.6875 0 1.234375 0.296875q0.5625 0.296875 0.953125 0.78125q0.40625 0.46875 0.609375 1.078125q0.21875 0.609375 0.21875 1.21875q0 1.015625 -0.5 1.84375q-0.5 0.828125 -1.40625 1.234375q1.140625 0.34375 1.796875 1.265625q0.671875 0.90625 0.671875 2.109375zm-1.3125 -0.21875q0 -0.484375 -0.171875 -0.9375q-0.15625 -0.453125 -0.46875 -0.796875q-0.3125 -0.359375 -0.734375 -0.5625q-0.40625 -0.21875 -0.890625 -0.21875l-5.078125 0l0 5.015625l4.9375 0q0.5 0 0.9375 -0.203125q0.453125 -0.203125 0.765625 -0.546875q0.328125 -0.34375 0.515625 -0.796875q0.1875 -0.46875 0.1875 -0.953125zm-7.34375 -8.46875l0 4.890625l4.546875 0q0.484375 0 0.90625 -0.203125q0.421875 -0.203125 0.71875 -0.53125q0.296875 -0.34375 0.46875 -0.78125q0.171875 -0.4375 0.171875 -0.921875q0 -0.515625 -0.171875 -0.953125q-0.15625 -0.453125 -0.453125 -0.78125q-0.28125 -0.328125 -0.671875 -0.515625q-0.390625 -0.203125 -0.859375 -0.203125l-4.65625 0zm13.893814 12.296875q-1.578125 0 -2.359375 -1.046875q-0.765625 -1.0625 -0.765625 -3.15625l0 -5.703125l1.265625 0l0 5.484375q0 3.296875 2.25 3.296875q0.5625 0 1.09375 -0.1875q0.546875 -0.1875 1.0 -0.53125q0.46875 -0.359375 0.828125 -0.84375q0.359375 -0.484375 0.59375 -1.09375l0 -6.125l1.265625 0l0 8.078125q0 0.515625 0.453125 0.515625l0 1.125q-0.234375 0.03125 -0.375 0.03125q-0.140625 0 -0.1875 0q-0.453125 -0.015625 -0.734375 -0.3125q-0.28125 -0.296875 -0.28125 -0.796875l0 -1.125q-0.625 1.140625 -1.71875 1.765625q-1.09375 0.625 -2.328125 0.625zm12.706818 -0.65625q-0.109375 0.0625 -0.328125 0.15625q-0.21875 0.09375 -0.5 0.1875q-0.265625 0.09375 -0.625 0.15625q-0.359375 0.078125 -0.75 0.078125q-0.40625 0 -0.78125 -0.109375q-0.375 -0.109375 -0.65625 -0.34375q-0.28125 -0.234375 -0.453125 -0.578125q-0.15625 -0.359375 -0.15625 -0.828125l0 -6.96875l-1.34375 0l0 -1.0l1.34375 0l0 -3.28125l1.265625 0l0 3.28125l2.234375 0l0 1.0l-2.234375 0l0 6.609375q0.03125 0.546875 0.375 0.796875q0.359375 0.25 0.796875 0.25q0.546875 0 0.953125 -0.171875q0.40625 -0.1875 0.53125 -0.265625l0.328125 1.03125zm6.2498474 0q-0.109375 0.0625 -0.328125 0.15625q-0.21875 0.09375 -0.5 0.1875q-0.265625 0.09375 -0.625 0.15625q-0.359375 0.078125 -0.75 0.078125q-0.40625 0 -0.78125 -0.109375q-0.375 -0.109375 -0.65625 -0.34375q-0.28125 -0.234375 -0.453125 -0.578125q-0.15625 -0.359375 -0.15625 -0.828125l0 -6.96875l-1.34375 0l0 -1.0l1.34375 0l0 -3.28125l1.265625 0l0 3.28125l2.234375 0l0 1.0l-2.234375 0l0 6.609375q0.03125 0.546875 0.375 0.796875q0.359375 0.25 0.796875 0.25q0.546875 0 0.953125 -0.171875q0.40625 -0.1875 0.53125 -0.265625l0.328125 1.03125zm5.491562 0.65625q-1.0625 0 -1.953125 -0.390625q-0.875 -0.40625 -1.515625 -1.09375q-0.640625 -0.703125 -1.0 -1.609375q-0.34375 -0.921875 -0.34375 -1.921875q0 -1.03125 0.359375 -1.9375q0.359375 -0.921875 1.0 -1.609375q0.65625 -0.6875 1.53125 -1.09375q0.875 -0.421875 1.921875 -0.421875q1.03125 0 1.921875 0.421875q0.890625 0.40625 1.53125 1.09375q0.640625 0.6875 1.0 1.609375q0.375 0.90625 0.375 1.9375q0 1.0 -0.359375 1.921875q-0.359375 0.90625 -1.0 1.609375q-0.640625 0.6875 -1.53125 1.09375q-0.875 0.390625 -1.9375 0.390625zm-3.53125 -5.0q0 0.8125 0.28125 1.515625q0.28125 0.703125 0.75 1.234375q0.484375 0.53125 1.125 0.828125q0.640625 0.296875 1.375 0.296875q0.71875 0 1.359375 -0.296875q0.65625 -0.3125 1.140625 -0.84375q0.484375 -0.53125 0.75 -1.234375q0.28125 -0.71875 0.28125 -1.53125q0 -0.8125 -0.28125 -1.53125q-0.265625 -0.71875 -0.75 -1.25q-0.484375 -0.53125 -1.140625 -0.828125q-0.640625 -0.3125 -1.359375 -0.3125q-0.734375 0 -1.375 0.3125q-0.625 0.296875 -1.109375 0.84375q-0.484375 0.53125 -0.765625 1.25q-0.28125 0.71875 -0.28125 1.546875zm18.662964 4.8125l-1.28125 0l0 -5.421875q0 -1.734375 -0.515625 -2.515625q-0.5 -0.796875 -1.5625 -0.796875q-0.5625 0 -1.125 0.203125q-0.5625 0.203125 -1.046875 0.578125q-0.46875 0.375 -0.84375 0.890625q-0.375 0.515625 -0.53125 1.109375l0 5.953125l-1.265625 0l0 -9.71875l1.15625 0l0 2.203125q0.59375 -1.0625 1.703125 -1.71875q1.109375 -0.65625 2.40625 -0.65625q0.8125 0 1.359375 0.296875q0.5625 0.296875 0.890625 0.84375q0.34375 0.546875 0.5 1.328125q0.15625 0.78125 0.15625 1.734375l0 5.6875zm5.923477 0.1875q-1.140625 0 -2.21875 -0.375q-1.078125 -0.375 -1.859375 -1.078125l0.578125 -0.859375q0.8125 0.671875 1.65625 1.015625q0.859375 0.328125 1.828125 0.328125q1.171875 0 1.875 -0.46875q0.703125 -0.484375 0.703125 -1.359375q0 -0.40625 -0.1875 -0.671875q-0.1875 -0.28125 -0.5625 -0.484375q-0.359375 -0.203125 -0.90625 -0.359375q-0.546875 -0.171875 -1.28125 -0.328125q-0.828125 -0.21875 -1.453125 -0.421875q-0.609375 -0.203125 -1.015625 -0.453125q-0.40625 -0.265625 -0.609375 -0.640625q-0.1875 -0.390625 -0.1875 -0.96875q0 -0.734375 0.28125 -1.28125q0.296875 -0.5625 0.796875 -0.921875q0.5 -0.375 1.15625 -0.5625q0.65625 -0.1875 1.40625 -0.1875q1.125 0 2.03125 0.375q0.921875 0.359375 1.484375 0.953125l-0.625 0.75q-0.53125 -0.5625 -1.3125 -0.84375q-0.78125 -0.28125 -1.609375 -0.28125q-0.515625 0 -0.9375 0.109375q-0.421875 0.09375 -0.75 0.328125q-0.328125 0.21875 -0.515625 0.5625q-0.1875 0.34375 -0.1875 0.8125q0 0.390625 0.125 0.640625q0.140625 0.234375 0.4375 0.421875q0.296875 0.171875 0.75 0.3125q0.453125 0.140625 1.109375 0.28125q0.9375 0.21875 1.640625 0.453125q0.71875 0.21875 1.1875 0.515625q0.46875 0.296875 0.703125 0.734375q0.25 0.421875 0.25 1.046875q0 1.34375 -1.03125 2.125q-1.015625 0.78125 -2.75 0.78125z" fill-rule="nonzero"/><path fill="#ffffff" d="m27.372177 507.1138q1.0 0 1.96875 0.53125q0.96875 0.515625 1.5 1.484375q0.53125 0.96875 0.53125 2.0q0 1.6719055 -1.171875 2.8437805q-1.171875 1.171875 -2.828125 1.171875q-1.671875 0 -2.84375 -1.171875q-1.171875 -1.171875 -1.171875 -2.8437805q0 -1.046875 0.53125 -2.0q0.546875 -0.96875 1.5 -1.484375q0.96875 -0.53125 1.984375 -0.53125z" fill-rule="nonzero"/><path fill="#ffffff" d="m58.65625 516.3951l0 -13.2500305l8.703125 0l0 1.15625l-7.390625 0l0 4.875l6.234375 0l0 1.078125l-6.234375 0l0 6.1406555l-1.3125 0zm14.244507 0.1875q-1.0625 0 -1.953125 -0.390625q-0.875 -0.40625 -1.515625 -1.09375q-0.640625 -0.703125 -1.0 -1.609375q-0.34375 -0.921875 -0.34375 -1.9219055q0 -1.03125 0.359375 -1.9375q0.359375 -0.921875 1.0 -1.609375q0.65625 -0.6875 1.53125 -1.09375q0.875 -0.421875 1.921875 -0.421875q1.03125 0 1.921875 0.421875q0.890625 0.40625 1.53125 1.09375q0.640625 0.6875 1.0 1.609375q0.375 0.90625 0.375 1.9375q0 1.0000305 -0.359375 1.9219055q-0.359375 0.90625 -1.0 1.609375q-0.640625 0.6875 -1.53125 1.09375q-0.875 0.390625 -1.9375 0.390625zm-3.53125 -5.0000305q0 0.8125305 0.28125 1.5156555q0.28125 0.703125 0.75 1.234375q0.484375 0.53125 1.125 0.828125q0.640625 0.296875 1.375 0.296875q0.71875 0 1.359375 -0.296875q0.65625 -0.3125 1.140625 -0.84375q0.484375 -0.53125 0.75 -1.234375q0.28125 -0.71875 0.28125 -1.5312805q0 -0.8125 -0.28125 -1.53125q-0.265625 -0.71875 -0.75 -1.25q-0.484375 -0.53125 -1.140625 -0.828125q-0.640625 -0.3125 -1.359375 -0.3125q-0.734375 0 -1.375 0.3125q-0.625 0.296875 -1.109375 0.84375q-0.484375 0.53125 -0.765625 1.25q-0.28125 0.71875 -0.28125 1.546875zm15.334839 -3.78125q-1.28125 0.03125 -2.234375 0.703125q-0.953125 0.671875 -1.34375 1.84375l0 6.0469055l-1.265625 0l0 -9.7187805l1.1875 0l0 2.328125q0.546875 -1.109375 1.453125 -1.75q0.921875 -0.640625 1.953125 -0.640625q0.15625 0 0.25 0.03125l0 1.15625zm0.54737854 3.703125q0 -1.015625 0.34375 -1.9375q0.359375 -0.921875 1.0 -1.59375q0.640625 -0.6875 1.53125 -1.078125q0.90625 -0.390625 1.984375 -0.390625q1.390625 0 2.40625 0.625q1.03125 0.625 1.546875 1.6875l-1.21875 0.390625q-0.421875 -0.734375 -1.15625 -1.15625q-0.734375 -0.421875 -1.625 -0.421875q-0.75 0 -1.40625 0.296875q-0.640625 0.296875 -1.109375 0.8125q-0.46875 0.515625 -0.75 1.21875q-0.265625 0.703125 -0.265625 1.546875q0 0.8281555 0.28125 1.5625305q0.28125 0.71875 0.765625 1.25q0.484375 0.53125 1.125 0.84375q0.640625 0.296875 1.375 0.296875q0.46875 0 0.921875 -0.125q0.453125 -0.125 0.84375 -0.359375q0.390625 -0.234375 0.671875 -0.53125q0.28125 -0.296875 0.390625 -0.640625l1.25 0.375q-0.203125 0.515625 -0.59375 0.953125q-0.390625 0.4375 -0.921875 0.765625q-0.53125 0.328125 -1.171875 0.5q-0.640625 0.1875 -1.34375 0.1875q-1.0625 0 -1.953125 -0.390625q-0.890625 -0.40625 -1.546875 -1.109375q-0.65625 -0.703125 -1.015625 -1.609375q-0.359375 -0.921875 -0.359375 -1.9687805zm15.008316 5.0781555q-1.0625 0 -1.953125 -0.390625q-0.875 -0.40625 -1.53125 -1.109375q-0.65625 -0.703125 -1.015625 -1.609375q-0.359375 -0.921875 -0.359375 -1.9687805q0 -1.015625 0.359375 -1.921875q0.359375 -0.90625 1.0 -1.578125q0.65625 -0.6875 1.546875 -1.09375q0.890625 -0.40625 1.9375 -0.40625q1.0625 0 1.9375 0.40625q0.890625 0.40625 1.53125 1.09375q0.640625 0.6875 0.984375 1.59375q0.359375 0.890625 0.359375 1.890625q0 0.15625 0 0.3125q0 0.140625 -0.015625 0.1875l-8.328125 0q0.0625 0.7812805 0.359375 1.4531555q0.3125 0.65625 0.796875 1.140625q0.484375 0.484375 1.109375 0.765625q0.625 0.265625 1.34375 0.265625q0.46875 0 0.921875 -0.125q0.46875 -0.140625 0.859375 -0.359375q0.390625 -0.234375 0.703125 -0.546875q0.328125 -0.328125 0.5 -0.71875l1.09375 0.296875q-0.21875 0.53125 -0.640625 0.96875q-0.40625 0.4375 -0.953125 0.765625q-0.53125 0.328125 -1.1875 0.5q-0.640625 0.1875 -1.359375 0.1875zm3.578125 -5.5625305q-0.046875 -0.78125 -0.359375 -1.421875q-0.3125 -0.640625 -0.78125 -1.109375q-0.46875 -0.46875 -1.09375 -0.734375q-0.625 -0.265625 -1.34375 -0.265625q-0.703125 0 -1.34375 0.265625q-0.625 0.265625 -1.109375 0.734375q-0.46875 0.46875 -0.765625 1.125q-0.28125 0.640625 -0.34375 1.40625l7.140625 0zm15.942932 -5.390625q-0.5625 -0.640625 -1.5 -1.03125q-0.921875 -0.390625 -2.125 -0.390625q-1.75 0 -2.5625 0.671875q-0.796875 0.65625 -0.796875 1.796875q0 0.59375 0.21875 0.984375q0.21875 0.375 0.65625 0.65625q0.453125 0.28125 1.15625 0.484375q0.703125 0.203125 1.640625 0.40625q1.0625 0.234375 1.90625 0.515625q0.859375 0.265625 1.453125 0.6875q0.609375 0.421875 0.921875 1.03125q0.3125 0.5937805 0.3125 1.4844055q0 0.90625 -0.359375 1.578125q-0.34375 0.671875 -0.984375 1.125q-0.625 0.453125 -1.515625 0.671875q-0.875 0.203125 -1.921875 0.203125q-3.078125 0 -5.3125 -1.921875l0.65625 -1.0625q0.359375 0.375 0.84375 0.71875q0.5 0.328125 1.109375 0.578125q0.609375 0.25 1.296875 0.390625q0.6875 0.140625 1.453125 0.140625q1.578125 0 2.46875 -0.5625q0.890625 -0.578125 0.890625 -1.734375q0 -0.609375 -0.25 -1.03125q-0.25 -0.42190552 -0.765625 -0.7187805q-0.5 -0.3125 -1.25 -0.53125q-0.734375 -0.234375 -1.734375 -0.453125q-1.046875 -0.25 -1.828125 -0.5q-0.78125 -0.265625 -1.328125 -0.65625q-0.53125 -0.390625 -0.8125 -0.9375q-0.265625 -0.5625 -0.265625 -1.359375q0 -0.921875 0.34375 -1.640625q0.34375 -0.71875 0.984375 -1.1875q0.640625 -0.46875 1.484375 -0.71875q0.859375 -0.265625 1.90625 -0.265625q1.328125 0 2.359375 0.40625q1.046875 0.40625 1.875 1.125l-0.625 1.046875zm7.511841 10.9531555q-1.0625 0 -1.953125 -0.390625q-0.875 -0.40625 -1.53125 -1.109375q-0.65625 -0.703125 -1.015625 -1.609375q-0.359375 -0.921875 -0.359375 -1.9687805q0 -1.015625 0.359375 -1.921875q0.359375 -0.90625 1.0 -1.578125q0.65625 -0.6875 1.546875 -1.09375q0.890625 -0.40625 1.9375 -0.40625q1.0625 0 1.9375 0.40625q0.890625 0.40625 1.53125 1.09375q0.640625 0.6875 0.984375 1.59375q0.359375 0.890625 0.359375 1.890625q0 0.15625 0 0.3125q0 0.140625 -0.015625 0.1875l-8.328125 0q0.0625 0.7812805 0.359375 1.4531555q0.3125 0.65625 0.796875 1.140625q0.484375 0.484375 1.109375 0.765625q0.625 0.265625 1.34375 0.265625q0.46875 0 0.921875 -0.125q0.46875 -0.140625 0.859375 -0.359375q0.390625 -0.234375 0.703125 -0.546875q0.328125 -0.328125 0.5 -0.71875l1.09375 0.296875q-0.21875 0.53125 -0.640625 0.96875q-0.40625 0.4375 -0.953125 0.765625q-0.53125 0.328125 -1.1875 0.5q-0.640625 0.1875 -1.359375 0.1875zm3.578125 -5.5625305q-0.046875 -0.78125 -0.359375 -1.421875q-0.3125 -0.640625 -0.78125 -1.109375q-0.46875 -0.46875 -1.09375 -0.734375q-0.625 -0.265625 -1.34375 -0.265625q-0.703125 0 -1.34375 0.265625q-0.625 0.265625 -1.109375 0.734375q-0.46875 0.46875 -0.765625 1.125q-0.28125 0.640625 -0.34375 1.40625l7.140625 0zm11.357468 5.3750305l-1.28125 0l0 -5.4219055q0 -1.734375 -0.515625 -2.515625q-0.5 -0.796875 -1.5625 -0.796875q-0.5625 0 -1.125 0.203125q-0.5625 0.203125 -1.046875 0.578125q-0.46875 0.375 -0.84375 0.890625q-0.375 0.515625 -0.53125 1.109375l0 5.9531555l-1.265625 0l0 -9.7187805l1.15625 0l0 2.203125q0.59375 -1.0625 1.703125 -1.71875q1.109375 -0.65625 2.40625 -0.65625q0.8125 0 1.359375 0.296875q0.5625 0.296875 0.890625 0.84375q0.34375 0.546875 0.5 1.328125q0.15625 0.78125 0.15625 1.734375l0 5.6875305zm5.923477 0.1875q-1.140625 0 -2.21875 -0.375q-1.078125 -0.375 -1.859375 -1.078125l0.578125 -0.859375q0.8125 0.671875 1.65625 1.015625q0.859375 0.328125 1.828125 0.328125q1.171875 0 1.875 -0.46875q0.703125 -0.484375 0.703125 -1.359375q0 -0.40625 -0.1875 -0.671875q-0.1875 -0.28125 -0.5625 -0.484375q-0.359375 -0.203125 -0.90625 -0.359375q-0.546875 -0.171875 -1.28125 -0.32815552q-0.828125 -0.21875 -1.453125 -0.421875q-0.609375 -0.203125 -1.015625 -0.453125q-0.40625 -0.265625 -0.609375 -0.640625q-0.1875 -0.390625 -0.1875 -0.96875q0 -0.734375 0.28125 -1.28125q0.296875 -0.5625 0.796875 -0.921875q0.5 -0.375 1.15625 -0.5625q0.65625 -0.1875 1.40625 -0.1875q1.125 0 2.03125 0.375q0.921875 0.359375 1.484375 0.953125l-0.625 0.75q-0.53125 -0.5625 -1.3125 -0.84375q-0.78125 -0.28125 -1.609375 -0.28125q-0.515625 0 -0.9375 0.109375q-0.421875 0.09375 -0.75 0.328125q-0.328125 0.21875 -0.515625 0.5625q-0.1875 0.34375 -0.1875 0.8125q0 0.390625 0.125 0.640625q0.140625 0.234375 0.4375 0.421875q0.296875 0.171875 0.75 0.3125q0.453125 0.140625 1.109375 0.28125q0.9375 0.21875 1.640625 0.453125q0.71875 0.21875 1.1875 0.515625q0.46875 0.29690552 0.703125 0.7344055q0.25 0.421875 0.25 1.046875q0 1.34375 -1.03125 2.125q-1.015625 0.78125 -2.75 0.78125zm10.007477 0q-1.0625 0 -1.953125 -0.390625q-0.875 -0.40625 -1.515625 -1.09375q-0.640625 -0.703125 -1.0 -1.609375q-0.34375 -0.921875 -0.34375 -1.9219055q0 -1.03125 0.359375 -1.9375q0.359375 -0.921875 1.0 -1.609375q0.65625 -0.6875 1.53125 -1.09375q0.875 -0.421875 1.921875 -0.421875q1.03125 0 1.921875 0.421875q0.890625 0.40625 1.53125 1.09375q0.640625 0.6875 1.0 1.609375q0.375 0.90625 0.375 1.9375q0 1.0000305 -0.359375 1.9219055q-0.359375 0.90625 -1.0 1.609375q-0.640625 0.6875 -1.53125 1.09375q-0.875 0.390625 -1.9375 0.390625zm-3.53125 -5.0000305q0 0.8125305 0.28125 1.5156555q0.28125 0.703125 0.75 1.234375q0.484375 0.53125 1.125 0.828125q0.640625 0.296875 1.375 0.296875q0.71875 0 1.359375 -0.296875q0.65625 -0.3125 1.140625 -0.84375q0.484375 -0.53125 0.75 -1.234375q0.28125 -0.71875 0.28125 -1.5312805q0 -0.8125 -0.28125 -1.53125q-0.265625 -0.71875 -0.75 -1.25q-0.484375 -0.53125 -1.140625 -0.828125q-0.640625 -0.3125 -1.359375 -0.3125q-0.734375 0 -1.375 0.3125q-0.625 0.296875 -1.109375 0.84375q-0.484375 0.53125 -0.765625 1.25q-0.28125 0.71875 -0.28125 1.546875zm15.334839 -3.78125q-1.28125 0.03125 -2.234375 0.703125q-0.953125 0.671875 -1.34375 1.84375l0 6.0469055l-1.265625 0l0 -9.7187805l1.1875 0l0 2.328125q0.546875 -1.109375 1.453125 -1.75q0.921875 -0.640625 1.953125 -0.640625q0.15625 0 0.25 0.03125l0 1.15625zm4.92334 8.7812805q-1.140625 0 -2.21875 -0.375q-1.078125 -0.375 -1.859375 -1.078125l0.578125 -0.859375q0.8125 0.671875 1.65625 1.015625q0.859375 0.328125 1.828125 0.328125q1.171875 0 1.875 -0.46875q0.703125 -0.484375 0.703125 -1.359375q0 -0.40625 -0.1875 -0.671875q-0.1875 -0.28125 -0.5625 -0.484375q-0.359375 -0.203125 -0.90625 -0.359375q-0.546875 -0.171875 -1.28125 -0.32815552q-0.828125 -0.21875 -1.453125 -0.421875q-0.609375 -0.203125 -1.015625 -0.453125q-0.40625 -0.265625 -0.609375 -0.640625q-0.1875 -0.390625 -0.1875 -0.96875q0 -0.734375 0.28125 -1.28125q0.296875 -0.5625 0.796875 -0.921875q0.5 -0.375 1.15625 -0.5625q0.65625 -0.1875 1.40625 -0.1875q1.125 0 2.03125 0.375q0.921875 0.359375 1.484375 0.953125l-0.625 0.75q-0.53125 -0.5625 -1.3125 -0.84375q-0.78125 -0.28125 -1.609375 -0.28125q-0.515625 0 -0.9375 0.109375q-0.421875 0.09375 -0.75 0.328125q-0.328125 0.21875 -0.515625 0.5625q-0.1875 0.34375 -0.1875 0.8125q0 0.390625 0.125 0.640625q0.140625 0.234375 0.4375 0.421875q0.296875 0.171875 0.75 0.3125q0.453125 0.140625 1.109375 0.28125q0.9375 0.21875 1.640625 0.453125q0.71875 0.21875 1.1875 0.515625q0.46875 0.29690552 0.703125 0.7344055q0.25 0.421875 0.25 1.046875q0 1.34375 -1.03125 2.125q-1.015625 0.78125 -2.75 0.78125z" fill-rule="nonzero"/><path fill="#09abab" d="m357.937 0.005249344l217.25983 0l0 130.11023l-217.25983 0z" fill-rule="evenodd"/><path fill="#ffffff" d="m436.64023 58.730362l2.265625 0l5.046875 13.25l-2.65625 0l-1.234375 -3.296875l-4.625 0l-1.203125 3.296875l-2.65625 0l5.0625 -13.25zm2.953125 8.140625l-1.828125 -5.203125l-1.890625 5.203125l3.71875 0zm11.380768 -2.5q-1.125 0.015625 -2.03125 0.4375q-0.890625 0.421875 -1.28125 1.265625l0 5.90625l-2.5 0l0 -9.78125l2.296875 0l0 2.09375q0.25 -0.5 0.609375 -0.90625q0.359375 -0.40625 0.765625 -0.703125q0.40625 -0.296875 0.828125 -0.453125q0.421875 -0.15625 0.8125 -0.15625q0.203125 0 0.296875 0q0.109375 0 0.203125 0.015625l0 2.28125zm4.968994 7.796875q-1.015625 0 -1.875 -0.390625q-0.84375 -0.390625 -1.46875 -1.078125q-0.609375 -0.703125 -0.953125 -1.625q-0.34375 -0.921875 -0.34375 -1.984375q0 -1.0625 0.3125 -1.96875q0.328125 -0.921875 0.90625 -1.609375q0.578125 -0.6875 1.375 -1.078125q0.8125 -0.390625 1.765625 -0.390625q1.078125 0 1.9375 0.515625q0.875 0.515625 1.359375 1.359375l0 -5.5625l2.5 0l0 10.75q0 0.390625 0.125 0.5625q0.140625 0.171875 0.453125 0.1875l0 2.125q-0.640625 0.125 -1.0625 0.125q-0.671875 0 -1.109375 -0.328125q-0.421875 -0.34375 -0.46875 -0.875l-0.0625 -0.625q-0.53125 0.9375 -1.46875 1.421875q-0.921875 0.46875 -1.921875 0.46875zm0.65625 -2.125q0.34375 0 0.71875 -0.125q0.375 -0.125 0.6875 -0.34375q0.328125 -0.21875 0.578125 -0.515625q0.25 -0.3125 0.375 -0.65625l0 -2.328125q-0.140625 -0.421875 -0.421875 -0.765625q-0.265625 -0.34375 -0.609375 -0.59375q-0.34375 -0.25 -0.734375 -0.390625q-0.375 -0.15625 -0.75 -0.15625q-0.5625 0 -1.046875 0.25q-0.46875 0.234375 -0.8125 0.65625q-0.328125 0.40625 -0.515625 0.953125q-0.171875 0.546875 -0.171875 1.125q0 0.609375 0.203125 1.140625q0.203125 0.515625 0.546875 0.90625q0.359375 0.390625 0.859375 0.625q0.5 0.21875 1.09375 0.21875zm10.314545 2.125q-1.515625 0 -2.296875 -0.96875q-0.78125 -0.96875 -0.78125 -2.875l0 -6.125l2.5 0l0 5.578125q0 2.265625 1.625 2.265625q0.71875 0 1.390625 -0.4375q0.6875 -0.4375 1.125 -1.34375l0 -6.0625l2.5 0l0 6.90625q0 0.390625 0.140625 0.5625q0.140625 0.171875 0.453125 0.1875l0 2.125q-0.375 0.078125 -0.625 0.09375q-0.25 0.015625 -0.453125 0.015625q-0.671875 0 -1.09375 -0.296875q-0.421875 -0.3125 -0.5 -0.859375l-0.046875 -0.78125q-0.65625 1.0 -1.6875 1.515625q-1.015625 0.5 -2.25 0.5zm8.545197 -0.1875l0 -9.78125l2.5 0l0 9.78125l-2.5 0zm0 -11.140625l0 -2.484375l2.5 0l0 2.484375l-2.5 0zm13.835449 11.140625l-2.5 0l0 -5.484375q0 -1.171875 -0.40625 -1.71875q-0.40625 -0.546875 -1.140625 -0.546875q-0.375 0 -0.765625 0.15625q-0.390625 0.15625 -0.734375 0.421875q-0.34375 0.265625 -0.625 0.640625q-0.28125 0.375 -0.40625 0.828125l0 5.703125l-2.5 0l0 -9.78125l2.25 0l0 1.8125q0.546875 -0.9375 1.5625 -1.453125q1.03125 -0.515625 2.328125 -0.515625q0.90625 0 1.484375 0.34375q0.578125 0.328125 0.890625 0.875q0.328125 0.53125 0.4375 1.21875q0.125 0.6875 0.125 1.40625l0 6.09375zm6.7058716 0.1875q-1.203125 0 -2.15625 -0.40625q-0.9375 -0.421875 -1.609375 -1.109375q-0.65625 -0.703125 -1.015625 -1.609375q-0.359375 -0.921875 -0.359375 -1.9375q0 -1.015625 0.359375 -1.921875q0.359375 -0.921875 1.015625 -1.625q0.671875 -0.703125 1.609375 -1.109375q0.953125 -0.40625 2.15625 -0.40625q1.1875 0 2.125 0.40625q0.953125 0.40625 1.609375 1.109375q0.671875 0.703125 1.015625 1.625q0.359375 0.90625 0.359375 1.921875q0 1.015625 -0.359375 1.9375q-0.34375 0.90625 -1.0 1.609375q-0.65625 0.6875 -1.609375 1.109375q-0.953125 0.40625 -2.140625 0.40625zm-2.5625 -5.0625q0 0.65625 0.1875 1.1875q0.203125 0.53125 0.546875 0.921875q0.34375 0.390625 0.8125 0.609375q0.46875 0.21875 1.015625 0.21875q0.53125 0 1.0 -0.21875q0.46875 -0.21875 0.8125 -0.609375q0.34375 -0.390625 0.53125 -0.921875q0.203125 -0.546875 0.203125 -1.203125q0 -0.625 -0.203125 -1.171875q-0.1875 -0.546875 -0.53125 -0.9375q-0.34375 -0.390625 -0.8125 -0.59375q-0.46875 -0.21875 -1.0 -0.21875q-0.546875 0 -1.015625 0.21875q-0.46875 0.21875 -0.8125 0.625q-0.34375 0.390625 -0.546875 0.9375q-0.1875 0.53125 -0.1875 1.15625z" fill-rule="nonzero"/><path fill="#09abab" d="m357.937 200.21523l217.25983 0l0 130.11024l-217.25983 0z" fill-rule="evenodd"/><path fill="#ffffff" d="m460.42468 272.19034l0 -8.765625l-3.421875 6.53125l-1.390625 0l-3.421875 -6.53125l0 8.765625l-2.578125 0l0 -13.25l2.765625 0l3.921875 7.546875l3.953125 -7.546875l2.734375 0l0 13.25l-2.5625 0zm7.669342 0.1875q-0.71875 0 -1.34375 -0.234375q-0.609375 -0.234375 -1.0625 -0.65625q-0.4375 -0.421875 -0.6875 -0.96875q-0.25 -0.5625 -0.25 -1.234375q0 -0.6875 0.296875 -1.28125q0.3125 -0.59375 0.859375 -1.0q0.5625 -0.40625 1.328125 -0.640625q0.765625 -0.234375 1.671875 -0.234375q0.65625 0 1.28125 0.109375q0.625 0.109375 1.109375 0.3125l0 -0.546875q0 -0.96875 -0.5625 -1.484375q-0.546875 -0.53125 -1.625 -0.53125q-0.78125 0 -1.53125 0.28125q-0.734375 0.265625 -1.53125 0.8125l-0.765625 -1.578125q1.890625 -1.25 4.078125 -1.25q2.109375 0 3.265625 1.03125q1.171875 1.03125 1.171875 3.0l0 3.03125q0 0.390625 0.140625 0.5625q0.140625 0.171875 0.453125 0.1875l0 2.125q-0.625 0.125 -1.09375 0.125q-0.71875 0 -1.109375 -0.3125q-0.375 -0.3125 -0.46875 -0.84375l-0.046875 -0.53125q-0.65625 0.859375 -1.59375 1.3125q-0.921875 0.4375 -1.984375 0.4375zm0.703125 -1.828125q0.640625 0 1.203125 -0.21875q0.5625 -0.234375 0.890625 -0.609375q0.40625 -0.3125 0.40625 -0.703125l0 -1.125q-0.453125 -0.15625 -0.984375 -0.265625q-0.515625 -0.109375 -1.0 -0.109375q-0.96875 0 -1.59375 0.453125q-0.609375 0.4375 -0.609375 1.109375q0 0.625 0.484375 1.046875q0.5 0.421875 1.203125 0.421875zm8.880554 -8.140625l2.109375 3.0625l0.140625 0.34375l0.1875 -0.34375l2.09375 -3.0625l2.578125 0l-3.484375 4.90625l3.53125 4.875l-2.5625 0l-2.171875 -3.046875l-0.171875 -0.3125l-0.140625 0.3125l-2.140625 3.046875l-2.578125 0l3.515625 -4.875l-3.46875 -4.90625l2.5625 0z" fill-rule="nonzero"/><path fill="#000000" fill-opacity="0.0" d="m466.56693 130.11548l0 70.110245" fill-rule="evenodd"/><path stroke="#ffffff" stroke-width="1.0" stroke-linejoin="round" stroke-linecap="butt" d="m466.56693 130.11548l0 64.110245" fill-rule="evenodd"/><path fill="#ffffff" stroke="#ffffff" stroke-width="1.0" stroke-linecap="butt" d="m464.9152 194.22572l1.6517334 4.538101l1.6517334 -4.538101z" fill-rule="evenodd"/><path fill="#000000" fill-opacity="0.0" d="m466.56693 151.37007l122.04727 0l0 39.2126l-122.04727 0z" fill-rule="evenodd"/><path fill="#ffffff" d="m487.6138 174.8682q0 0.84375 -0.34375 1.484375q-0.328125 0.625 -0.921875 1.0625q-0.578125 0.421875 -1.359375 0.65625q-0.765625 0.21875 -1.640625 0.21875l-6.40625 0l0 -13.25l7.09375 0q0.6875 0 1.25 0.296875q0.5625 0.296875 0.953125 0.78125q0.390625 0.46875 0.609375 1.078125q0.21875 0.609375 0.21875 1.21875q0 0.96875 -0.5 1.828125q-0.484375 0.84375 -1.40625 1.25q1.140625 0.34375 1.796875 1.21875q0.65625 0.859375 0.65625 2.15625zm-2.59375 -0.484375q0 -0.34375 -0.125 -0.671875q-0.109375 -0.328125 -0.3125 -0.5625q-0.203125 -0.25 -0.484375 -0.390625q-0.28125 -0.140625 -0.625 -0.140625l-3.953125 0l0 3.484375l3.828125 0q0.359375 0 0.65625 -0.125q0.3125 -0.125 0.53125 -0.359375q0.234375 -0.234375 0.359375 -0.546875q0.125 -0.328125 0.125 -0.6875zm-5.5 -7.140625l0 3.34375l3.4375 0q0.65625 0 1.109375 -0.4375q0.453125 -0.453125 0.453125 -1.25q0 -0.765625 -0.421875 -1.203125q-0.421875 -0.453125 -1.03125 -0.453125l-3.546875 0zm9.858124 -2.578125l2.5 0l0 10.484375q0 0.546875 0.25 0.84375q0.265625 0.296875 0.75 0.296875q0.21875 0 0.484375 -0.0625q0.28125 -0.078125 0.53125 -0.1875l0.328125 1.890625q-0.5 0.25 -1.171875 0.375q-0.671875 0.140625 -1.21875 0.140625q-1.171875 0 -1.8125 -0.625q-0.640625 -0.625 -0.640625 -1.78125l0 -11.375zm8.914032 13.8125q-1.515625 0 -2.296875 -0.96875q-0.78125 -0.96875 -0.78125 -2.875l0 -6.125l2.5 0l0 5.578125q0 2.265625 1.625 2.265625q0.71875 0 1.390625 -0.4375q0.6875 -0.4375 1.125 -1.34375l0 -6.0625l2.5 0l0 6.90625q0 0.390625 0.140625 0.5625q0.140625 0.171875 0.453125 0.1875l0 2.125q-0.375 0.078125 -0.625 0.09375q-0.25 0.015625 -0.453125 0.015625q-0.671875 0 -1.09375 -0.296875q-0.421875 -0.3125 -0.5 -0.859375l-0.046875 -0.78125q-0.65625 1.0 -1.6875 1.515625q-1.015625 0.5 -2.25 0.5zm13.076447 0q-1.171875 0 -2.125 -0.390625q-0.953125 -0.40625 -1.625 -1.09375q-0.671875 -0.703125 -1.046875 -1.609375q-0.359375 -0.921875 -0.359375 -1.921875q0 -1.046875 0.359375 -1.96875q0.359375 -0.921875 1.03125 -1.625q0.671875 -0.703125 1.625 -1.109375q0.96875 -0.40625 2.15625 -0.40625q1.203125 0 2.140625 0.40625q0.9375 0.40625 1.59375 1.09375q0.671875 0.6875 1.015625 1.609375q0.34375 0.921875 0.34375 1.90625q0 0.234375 -0.015625 0.46875q0 0.21875 -0.03125 0.375l-7.5625 0q0.0625 0.578125 0.28125 1.03125q0.21875 0.4375 0.578125 0.75q0.359375 0.3125 0.796875 0.484375q0.453125 0.171875 0.9375 0.171875q0.75 0 1.40625 -0.359375q0.65625 -0.375 0.90625 -0.96875l2.140625 0.59375q-0.53125 1.125 -1.71875 1.84375q-1.1875 0.71875 -2.828125 0.71875zm2.53125 -5.890625q-0.09375 -1.109375 -0.8125 -1.765625q-0.71875 -0.671875 -1.734375 -0.671875q-0.5 0 -0.953125 0.1875q-0.4375 0.171875 -0.78125 0.5q-0.328125 0.3125 -0.546875 0.765625q-0.203125 0.4375 -0.234375 0.984375l5.0625 0zm9.897339 5.203125q-0.5 0.21875 -1.234375 0.453125q-0.734375 0.21875 -1.53125 0.21875q-0.515625 0 -0.984375 -0.140625q-0.453125 -0.125 -0.796875 -0.40625q-0.34375 -0.296875 -0.546875 -0.75q-0.203125 -0.453125 -0.203125 -1.109375l0 -5.625l-1.296875 0l0 -1.921875l1.296875 0l0 -3.171875l2.5 0l0 3.171875l2.046875 0l0 1.921875l-2.046875 0l0 4.78125q0 0.515625 0.265625 0.734375q0.265625 0.21875 0.65625 0.21875q0.390625 0 0.765625 -0.125q0.375 -0.140625 0.609375 -0.234375l0.5 1.984375zm5.5775757 0.6875q-1.203125 0 -2.15625 -0.40625q-0.9375 -0.421875 -1.609375 -1.109375q-0.65625 -0.703125 -1.015625 -1.609375q-0.359375 -0.921875 -0.359375 -1.9375q0 -1.015625 0.359375 -1.921875q0.359375 -0.921875 1.015625 -1.625q0.671875 -0.703125 1.609375 -1.109375q0.953125 -0.40625 2.15625 -0.40625q1.1875 0 2.125 0.40625q0.953125 0.40625 1.609375 1.109375q0.671875 0.703125 1.015625 1.625q0.359375 0.90625 0.359375 1.921875q0 1.015625 -0.359375 1.9375q-0.34375 0.90625 -1.0 1.609375q-0.65625 0.6875 -1.609375 1.109375q-0.953125 0.40625 -2.140625 0.40625zm-2.5625 -5.0625q0 0.65625 0.1875 1.1875q0.203125 0.53125 0.546875 0.921875q0.34375 0.390625 0.8125 0.609375q0.46875 0.21875 1.015625 0.21875q0.53125 0 1.0 -0.21875q0.46875 -0.21875 0.8125 -0.609375q0.34375 -0.390625 0.53125 -0.921875q0.203125 -0.546875 0.203125 -1.203125q0 -0.625 -0.203125 -1.171875q-0.1875 -0.546875 -0.53125 -0.9375q-0.34375 -0.390625 -0.8125 -0.59375q-0.46875 -0.21875 -1.0 -0.21875q-0.546875 0 -1.015625 0.21875q-0.46875 0.21875 -0.8125 0.625q-0.34375 0.390625 -0.546875 0.9375q-0.1875 0.53125 -0.1875 1.15625zm13.868164 5.0625q-1.203125 0 -2.15625 -0.40625q-0.9375 -0.421875 -1.609375 -1.109375q-0.65625 -0.703125 -1.015625 -1.609375q-0.359375 -0.921875 -0.359375 -1.9375q0 -1.015625 0.359375 -1.921875q0.359375 -0.921875 1.015625 -1.625q0.671875 -0.703125 1.609375 -1.109375q0.953125 -0.40625 2.15625 -0.40625q1.1875 0 2.125 0.40625q0.953125 0.40625 1.609375 1.109375q0.671875 0.703125 1.015625 1.625q0.359375 0.90625 0.359375 1.921875q0 1.015625 -0.359375 1.9375q-0.34375 0.90625 -1.0 1.609375q-0.65625 0.6875 -1.609375 1.109375q-0.953125 0.40625 -2.140625 0.40625zm-2.5625 -5.0625q0 0.65625 0.1875 1.1875q0.203125 0.53125 0.546875 0.921875q0.34375 0.390625 0.8125 0.609375q0.46875 0.21875 1.015625 0.21875q0.53125 0 1.0 -0.21875q0.46875 -0.21875 0.8125 -0.609375q0.34375 -0.390625 0.53125 -0.921875q0.203125 -0.546875 0.203125 -1.203125q0 -0.625 -0.203125 -1.171875q-0.1875 -0.546875 -0.53125 -0.9375q-0.34375 -0.390625 -0.8125 -0.59375q-0.46875 -0.21875 -1.0 -0.21875q-0.546875 0 -1.015625 0.21875q-0.46875 0.21875 -0.8125 0.625q-0.34375 0.390625 -0.546875 0.9375q-0.1875 0.53125 -0.1875 1.15625zm15.081299 4.375q-0.5 0.21875 -1.234375 0.453125q-0.734375 0.21875 -1.53125 0.21875q-0.515625 0 -0.984375 -0.140625q-0.453125 -0.125 -0.796875 -0.40625q-0.34375 -0.296875 -0.546875 -0.75q-0.203125 -0.453125 -0.203125 -1.109375l0 -5.625l-1.296875 0l0 -1.921875l1.296875 0l0 -3.171875l2.5 0l0 3.171875l2.046875 0l0 1.921875l-2.046875 0l0 4.78125q0 0.515625 0.265625 0.734375q0.265625 0.21875 0.65625 0.21875q0.390625 0 0.765625 -0.125q0.375 -0.140625 0.609375 -0.234375l0.5 1.984375zm10.382751 0.5l-2.5 0l0 -5.484375q0 -1.15625 -0.4375 -1.703125q-0.421875 -0.5625 -1.203125 -0.5625q-0.328125 0 -0.703125 0.15625q-0.375 0.15625 -0.71875 0.421875q-0.328125 0.265625 -0.609375 0.640625q-0.28125 0.375 -0.40625 0.828125l0 5.703125l-2.5 0l0 -13.625l2.5 0l0 5.65625q0.53125 -0.953125 1.453125 -1.453125q0.9375 -0.515625 2.046875 -0.515625q0.953125 0 1.546875 0.328125q0.609375 0.3125 0.9375 0.859375q0.34375 0.546875 0.46875 1.234375q0.125 0.6875 0.125 1.421875l0 6.09375z" fill-rule="nonzero"/><path fill="#f875af" d="m0 0l217.25984 0l0 130.11023l-217.25984 0z" fill-rule="evenodd"/><path fill="#ffffff" d="m42.901497 58.725113l0 13.25l-2.546875 0l0 -5.65625l-6.015625 0l0 5.65625l-2.578125 0l0 -13.25l2.578125 0l0 5.359375l6.015625 0l0 -5.359375l2.546875 0zm5.1024475 13.4375q-0.71875 0 -1.34375 -0.234375q-0.609375 -0.234375 -1.0625 -0.65625q-0.4375 -0.421875 -0.6875 -0.96875q-0.25 -0.5625 -0.25 -1.234375q0 -0.6875 0.296875 -1.28125q0.3125 -0.59375 0.859375 -1.0q0.5625 -0.40625 1.328125 -0.640625q0.765625 -0.234375 1.671875 -0.234375q0.65625 0 1.28125 0.109375q0.625 0.109375 1.109375 0.3125l0 -0.546875q0 -0.96875 -0.5625 -1.484375q-0.546875 -0.53125 -1.625 -0.53125q-0.78125 0 -1.53125 0.28125q-0.734375 0.265625 -1.53125 0.8125l-0.765625 -1.578125q1.890625 -1.25 4.078125 -1.25q2.109375 0 3.265625 1.03125q1.171875 1.03125 1.171875 3.0l0 3.03125q0 0.390625 0.140625 0.5625q0.140625 0.171875 0.453125 0.1875l0 2.125q-0.625 0.125 -1.09375 0.125q-0.71875 0 -1.109375 -0.3125q-0.375 -0.3125 -0.46875 -0.84375l-0.046875 -0.53125q-0.65625 0.859375 -1.59375 1.3125q-0.921875 0.4375 -1.984375 0.4375zm0.703125 -1.828125q0.640625 0 1.203125 -0.21875q0.5625 -0.234375 0.890625 -0.609375q0.40625 -0.3125 0.40625 -0.703125l0 -1.125q-0.453125 -0.15625 -0.984375 -0.265625q-0.515625 -0.109375 -1.0 -0.109375q-0.96875 0 -1.59375 0.453125q-0.609375 0.4375 -0.609375 1.109375q0 0.625 0.484375 1.046875q0.5 0.421875 1.203125 0.421875zm16.41182 1.640625l-2.5 0l0 -5.484375q0 -1.171875 -0.40625 -1.71875q-0.40625 -0.546875 -1.140625 -0.546875q-0.375 0 -0.765625 0.15625q-0.390625 0.15625 -0.734375 0.421875q-0.34375 0.265625 -0.625 0.640625q-0.28125 0.375 -0.40625 0.828125l0 5.703125l-2.5 0l0 -9.78125l2.25 0l0 1.8125q0.546875 -0.9375 1.5625 -1.453125q1.03125 -0.515625 2.328125 -0.515625q0.90625 0 1.484375 0.34375q0.578125 0.328125 0.890625 0.875q0.328125 0.53125 0.4375 1.21875q0.125 0.6875 0.125 1.40625l0 6.09375zm6.2371216 0.1875q-1.015625 0 -1.875 -0.390625q-0.84375 -0.390625 -1.46875 -1.078125q-0.609375 -0.703125 -0.953125 -1.625q-0.34375 -0.921875 -0.34375 -1.984375q0 -1.0625 0.3125 -1.96875q0.328125 -0.921875 0.90625 -1.609375q0.578125 -0.6875 1.375 -1.078125q0.8125 -0.390625 1.765625 -0.390625q1.078125 0 1.9375 0.515625q0.875 0.515625 1.359375 1.359375l0 -5.5625l2.5 0l0 10.75q0 0.390625 0.125 0.5625q0.140625 0.171875 0.453125 0.1875l0 2.125q-0.640625 0.125 -1.0625 0.125q-0.671875 0 -1.109375 -0.328125q-0.421875 -0.34375 -0.46875 -0.875l-0.0625 -0.625q-0.53125 0.9375 -1.46875 1.421875q-0.921875 0.46875 -1.921875 0.46875zm0.65625 -2.125q0.34375 0 0.71875 -0.125q0.375 -0.125 0.6875 -0.34375q0.328125 -0.21875 0.578125 -0.515625q0.25 -0.3125 0.375 -0.65625l0 -2.328125q-0.140625 -0.421875 -0.421875 -0.765625q-0.265625 -0.34375 -0.609375 -0.59375q-0.34375 -0.25 -0.734375 -0.390625q-0.375 -0.15625 -0.75 -0.15625q-0.5625 0 -1.046875 0.25q-0.46875 0.234375 -0.8125 0.65625q-0.328125 0.40625 -0.515625 0.953125q-0.171875 0.546875 -0.171875 1.125q0 0.609375 0.203125 1.140625q0.203125 0.515625 0.546875 0.90625q0.359375 0.390625 0.859375 0.625q0.5 0.21875 1.09375 0.21875zm22.854538 1.9375l0 -8.765625l-3.421875 6.53125l-1.390625 0l-3.421875 -6.53125l0 8.765625l-2.578125 0l0 -13.25l2.765625 0l3.921875 7.546875l3.953125 -7.546875l2.734375 0l0 13.25l-2.5625 0zm9.475754 0.1875q-1.203125 0 -2.15625 -0.40625q-0.9375 -0.421875 -1.609375 -1.109375q-0.65625 -0.703125 -1.015625 -1.609375q-0.359375 -0.921875 -0.359375 -1.9375q0 -1.015625 0.359375 -1.921875q0.359375 -0.921875 1.015625 -1.625q0.671875 -0.703125 1.609375 -1.109375q0.953125 -0.40625 2.15625 -0.40625q1.1875 0 2.125 0.40625q0.953125 0.40625 1.609375 1.109375q0.671875 0.703125 1.015625 1.625q0.359375 0.90625 0.359375 1.921875q0 1.015625 -0.359375 1.9375q-0.34375 0.90625 -1.0 1.609375q-0.65625 0.6875 -1.609375 1.109375q-0.953125 0.40625 -2.140625 0.40625zm-2.5625 -5.0625q0 0.65625 0.1875 1.1875q0.203125 0.53125 0.546875 0.921875q0.34375 0.390625 0.8125 0.609375q0.46875 0.21875 1.015625 0.21875q0.53125 0 1.0 -0.21875q0.46875 -0.21875 0.8125 -0.609375q0.34375 -0.390625 0.53125 -0.921875q0.203125 -0.546875 0.203125 -1.203125q0 -0.625 -0.203125 -1.171875q-0.1875 -0.546875 -0.53125 -0.9375q-0.34375 -0.390625 -0.8125 -0.59375q-0.46875 -0.21875 -1.0 -0.21875q-0.546875 0 -1.015625 0.21875q-0.46875 0.21875 -0.8125 0.625q-0.34375 0.390625 -0.546875 0.9375q-0.1875 0.53125 -0.1875 1.15625zm11.62291 4.875l-3.59375 -9.78125l2.578125 0l2.46875 7.75l2.5 -7.75l2.359375 0l-3.609375 9.78125l-2.703125 0zm11.8125305 0.1875q-1.171875 0 -2.125 -0.390625q-0.953125 -0.40625 -1.625 -1.09375q-0.671875 -0.703125 -1.046875 -1.609375q-0.359375 -0.921875 -0.359375 -1.921875q0 -1.046875 0.359375 -1.96875q0.359375 -0.921875 1.03125 -1.625q0.671875 -0.703125 1.625 -1.109375q0.96875 -0.40625 2.15625 -0.40625q1.203125 0 2.140625 0.40625q0.9374924 0.40625 1.5937424 1.09375q0.671875 0.6875 1.015625 1.609375q0.34375 0.921875 0.34375 1.90625q0 0.234375 -0.015625 0.46875q0 0.21875 -0.03125 0.375l-7.5624924 0q0.0625 0.578125 0.28125 1.03125q0.21875 0.4375 0.578125 0.75q0.359375 0.3125 0.796875 0.484375q0.453125 0.171875 0.9375 0.171875q0.75 0 1.40625 -0.359375q0.65625 -0.375 0.90625 -0.96875l2.1406174 0.59375q-0.53125 1.125 -1.71875 1.84375q-1.1874924 0.71875 -2.8281174 0.71875zm2.53125 -5.890625q-0.09375 -1.109375 -0.8125 -1.765625q-0.71875 -0.671875 -1.734375 -0.671875q-0.5 0 -0.953125 0.1875q-0.4375 0.171875 -0.78125 0.5q-0.328125 0.3125 -0.546875 0.765625q-0.203125 0.4375 -0.234375 0.984375l5.0625 0zm19.300102 5.703125l-2.5 0l0 -5.484375q0 -1.171875 -0.40625 -1.71875q-0.40625 -0.546875 -1.109375 -0.546875q-0.75 0 -1.40625 0.578125q-0.640625 0.5625 -0.921875 1.484375l0 5.6875l-2.5 0l0 -5.484375q0 -1.171875 -0.40625 -1.71875q-0.40625 -0.546875 -1.109375 -0.546875q-0.71875 0 -1.390625 0.5625q-0.65625 0.5625 -0.9375 1.484375l0 5.703125l-2.5 0l0 -9.78125l2.25 0l0 1.8125q0.546875 -0.953125 1.484375 -1.453125q0.953125 -0.515625 2.15625 -0.515625q1.234375 0 1.90625 0.59375q0.671875 0.59375 0.859375 1.46875q0.59375 -1.0 1.5 -1.53125q0.921875 -0.53125 2.09375 -0.53125q0.90625 0 1.484375 0.34375q0.578125 0.328125 0.890625 0.875q0.3125 0.53125 0.4375 1.21875q0.125 0.6875 0.125 1.40625l0 6.09375zm6.7127075 0.1875q-1.171875 0 -2.125 -0.390625q-0.953125 -0.40625 -1.625 -1.09375q-0.671875 -0.703125 -1.046875 -1.609375q-0.359375 -0.921875 -0.359375 -1.921875q0 -1.046875 0.359375 -1.96875q0.359375 -0.921875 1.03125 -1.625q0.671875 -0.703125 1.625 -1.109375q0.96875 -0.40625 2.15625 -0.40625q1.203125 0 2.140625 0.40625q0.9375 0.40625 1.59375 1.09375q0.671875 0.6875 1.015625 1.609375q0.34375 0.921875 0.34375 1.90625q0 0.234375 -0.015625 0.46875q0 0.21875 -0.03125 0.375l-7.5625 0q0.0625 0.578125 0.28125 1.03125q0.21875 0.4375 0.578125 0.75q0.359375 0.3125 0.796875 0.484375q0.453125 0.171875 0.9375 0.171875q0.75 0 1.40625 -0.359375q0.65625 -0.375 0.90625 -0.96875l2.140625 0.59375q-0.53125 1.125 -1.71875 1.84375q-1.1875 0.71875 -2.828125 0.71875zm2.53125 -5.890625q-0.09375 -1.109375 -0.8125 -1.765625q-0.71875 -0.671875 -1.734375 -0.671875q-0.5 0 -0.953125 0.1875q-0.4375 0.171875 -0.78125 0.5q-0.328125 0.3125 -0.546875 0.765625q-0.203125 0.4375 -0.234375 0.984375l5.0625 0zm13.190735 5.703125l-2.5 0l0 -5.484375q0 -1.171875 -0.40625 -1.71875q-0.40625 -0.546875 -1.140625 -0.546875q-0.375 0 -0.765625 0.15625q-0.390625 0.15625 -0.734375 0.421875q-0.34375 0.265625 -0.625 0.640625q-0.28125 0.375 -0.40625 0.828125l0 5.703125l-2.5 0l0 -9.78125l2.25 0l0 1.8125q0.546875 -0.9375 1.5625 -1.453125q1.03125 -0.515625 2.328125 -0.515625q0.90625 0 1.484375 0.34375q0.578125 0.328125 0.890625 0.875q0.328125 0.53125 0.4375 1.21875q0.125 0.6875 0.125 1.40625l0 6.09375zm7.9562683 -0.5q-0.5 0.21875 -1.234375 0.453125q-0.734375 0.21875 -1.53125 0.21875q-0.515625 0 -0.984375 -0.140625q-0.453125 -0.125 -0.796875 -0.40625q-0.34375 -0.296875 -0.546875 -0.75q-0.203125 -0.453125 -0.203125 -1.109375l0 -5.625l-1.296875 0l0 -1.921875l1.296875 0l0 -3.171875l2.5 0l0 3.171875l2.046875 0l0 1.921875l-2.046875 0l0 4.78125q0 0.515625 0.265625 0.734375q0.265625 0.21875 0.65625 0.21875q0.390625 0 0.765625 -0.125q0.375 -0.140625 0.609375 -0.234375l0.5 1.984375zm4.9921265 0.6875q-1.234375 0 -2.40625 -0.390625q-1.171875 -0.390625 -2.015625 -1.125l0.9375 -1.5625q0.890625 0.640625 1.734375 0.96875q0.859375 0.3125 1.703125 0.3125q0.734375 0 1.15625 -0.28125q0.4375 -0.28125 0.4375 -0.796875q0 -0.515625 -0.5 -0.75q-0.5 -0.25 -1.640625 -0.578125q-0.953125 -0.25 -1.625 -0.484375q-0.671875 -0.25 -1.078125 -0.5625q-0.40625 -0.3125 -0.59375 -0.703125q-0.1875 -0.40625 -0.1875 -0.96875q0 -0.75 0.28125 -1.34375q0.296875 -0.59375 0.8125 -1.015625q0.53125 -0.421875 1.21875 -0.640625q0.703125 -0.234375 1.53125 -0.234375q1.09375 0 2.046875 0.328125q0.96875 0.3125 1.765625 1.015625l-1.0 1.515625q-0.75 -0.5625 -1.453125 -0.8125q-0.6875 -0.265625 -1.375 -0.265625q-0.640625 0 -1.078125 0.265625q-0.421875 0.25 -0.421875 0.828125q0 0.265625 0.09375 0.4375q0.109375 0.15625 0.328125 0.296875q0.234375 0.125 0.59375 0.25q0.359375 0.125 0.90625 0.25q1.0 0.265625 1.71875 0.53125q0.71875 0.25 1.171875 0.59375q0.46875 0.328125 0.671875 0.765625q0.21875 0.4375 0.21875 1.0625q0 1.4375 -1.0625 2.265625q-1.0625 0.828125 -2.890625 0.828125z" fill-rule="nonzero"/><path fill="#666666" d="m0 200.20998l217.25984 0l0 130.11024l-217.25984 0z" fill-rule="evenodd"/><path fill="#ffffff" d="m93.47193 270.6851q-1.578125 1.59375 -3.6875 1.59375q-1.3125 0 -2.46875 -0.515625q-1.140625 -0.53125 -2.0 -1.4375q-0.84375 -0.921875 -1.34375 -2.15625q-0.484375 -1.25 -0.484375 -2.6875q0 -1.359375 0.484375 -2.5625q0.5 -1.203125 1.375 -2.109375q0.875 -0.90625 2.046875 -1.4375q1.171875 -0.53125 2.546875 -0.53125q1.875 0 3.203125 0.796875q1.328125 0.78125 2.0 2.09375l-1.921875 1.421875q-0.5 -0.984375 -1.40625 -1.5q-0.90625 -0.53125 -1.96875 -0.53125q-0.828125 0 -1.53125 0.359375q-0.703125 0.34375 -1.203125 0.96875q-0.484375 0.609375 -0.765625 1.421875q-0.265625 0.796875 -0.265625 1.6875q0 0.9375 0.296875 1.75q0.296875 0.8125 0.8125 1.40625q0.53125 0.59375 1.25 0.9375q0.71875 0.34375 1.5625 0.34375q1.921875 0 3.46875 -1.8125l0 -0.921875l-2.671875 0l0 -1.890625l4.796875 0l0 6.8125l-2.125 0l0 -1.5zm4.0726624 -12.125l2.5 0l0 10.484375q0 0.546875 0.25 0.84375q0.265625 0.296875 0.75 0.296875q0.21875 0 0.484375 -0.0625q0.28125 -0.078125 0.53125 -0.1875l0.328125 1.890625q-0.5 0.25 -1.171875 0.375q-0.671875 0.140625 -1.21875 0.140625q-1.171875 0 -1.8125 -0.625q-0.640625 -0.625 -0.640625 -1.78125l0 -11.375zm10.445282 13.8125q-1.203125 0 -2.15625 -0.40625q-0.9375 -0.421875 -1.609375 -1.109375q-0.65625 -0.703125 -1.015625 -1.609375q-0.359375 -0.921875 -0.359375 -1.9375q0 -1.015625 0.359375 -1.921875q0.359375 -0.921875 1.015625 -1.625q0.671875 -0.703125 1.609375 -1.109375q0.953125 -0.40625 2.15625 -0.40625q1.1875 0 2.125 0.40625q0.953125 0.40625 1.609375 1.109375q0.671875 0.703125 1.015625 1.625q0.359375 0.90625 0.359375 1.921875q0 1.015625 -0.359375 1.9375q-0.34375 0.90625 -1.0 1.609375q-0.65625 0.6875 -1.609375 1.109375q-0.953125 0.40625 -2.140625 0.40625zm-2.5625 -5.0625q0 0.65625 0.1875 1.1875q0.203125 0.53125 0.546875 0.921875q0.34375 0.390625 0.8125 0.609375q0.46875 0.21875 1.015625 0.21875q0.53125 0 1.0 -0.21875q0.46875 -0.21875 0.8125 -0.609375q0.34375 -0.390625 0.53125 -0.921875q0.203125 -0.546875 0.203125 -1.203125q0 -0.625 -0.203125 -1.171875q-0.1875 -0.546875 -0.53125 -0.9375q-0.34375 -0.390625 -0.8125 -0.59375q-0.46875 -0.21875 -1.0 -0.21875q-0.546875 0 -1.015625 0.21875q-0.46875 0.21875 -0.8125 0.625q-0.34375 0.390625 -0.546875 0.9375q-0.1875 0.53125 -0.1875 1.15625zm11.62291 4.875l-3.59375 -9.78125l2.578125 0l2.46875 7.75l2.5 -7.75l2.359375 0l-3.609375 9.78125l-2.703125 0zm11.812538 0.1875q-1.1718826 0 -2.1250076 -0.390625q-0.953125 -0.40625 -1.625 -1.09375q-0.671875 -0.703125 -1.046875 -1.609375q-0.359375 -0.921875 -0.359375 -1.921875q0 -1.046875 0.359375 -1.96875q0.359375 -0.921875 1.03125 -1.625q0.671875 -0.703125 1.625 -1.109375q0.96875 -0.40625 2.1562576 -0.40625q1.203125 0 2.140625 0.40625q0.9375 0.40625 1.59375 1.09375q0.671875 0.6875 1.015625 1.609375q0.34375 0.921875 0.34375 1.90625q0 0.234375 -0.015625 0.46875q0 0.21875 -0.03125 0.375l-7.5625076 0q0.0625 0.578125 0.28125 1.03125q0.21875 0.4375 0.578125 0.75q0.359375 0.3125 0.7968826 0.484375q0.453125 0.171875 0.9375 0.171875q0.75 0 1.40625 -0.359375q0.65625 -0.375 0.90625 -0.96875l2.140625 0.59375q-0.53125 1.125 -1.71875 1.84375q-1.1875 0.71875 -2.828125 0.71875zm2.53125 -5.890625q-0.09375 -1.109375 -0.8125 -1.765625q-0.71875 -0.671875 -1.734375 -0.671875q-0.5 0 -0.9531326 0.1875q-0.4375 0.171875 -0.78125 0.5q-0.328125 0.3125 -0.546875 0.765625q-0.203125 0.4375 -0.234375 0.984375l5.0625076 0z" fill-rule="nonzero"/><path fill="#000000" fill-opacity="0.0" d="m108.62992 130.11023l0 70.110245" fill-rule="evenodd"/><path stroke="#ffffff" stroke-width="1.0" stroke-linejoin="round" stroke-linecap="butt" d="m108.62992 130.11023l0 64.110245" fill-rule="evenodd"/><path fill="#ffffff" stroke="#ffffff" stroke-width="1.0" stroke-linecap="butt" d="m106.97819 194.22047l1.6517334 4.538101l1.6517334 -4.538101z" fill-rule="evenodd"/><path fill="#000000" fill-opacity="0.0" d="m108.62992 330.32022l0 70.11023" fill-rule="evenodd"/><path stroke="#ffffff" stroke-width="1.0" stroke-linejoin="round" stroke-linecap="butt" d="m108.62992 330.32022l0 64.11023" fill-rule="evenodd"/><path fill="#ffffff" stroke="#ffffff" stroke-width="1.0" stroke-linecap="butt" d="m106.97819 394.43045l1.6517334 4.538086l1.6517334 -4.538086z" fill-rule="evenodd"/><path fill="#000000" fill-opacity="0.0" d="m217.25984 465.47507l70.33803 0l0 -400.40945l70.35489 0" fill-rule="evenodd"/><path stroke="#ffffff" stroke-width="1.0" stroke-linejoin="round" stroke-linecap="butt" d="m217.25984 465.47507l70.33803 0l0 -400.40945l70.35489 0" fill-rule="evenodd"/><path fill="#000000" fill-opacity="0.0" d="m285.87402 66.666664l72.06299 -1.6063004" fill-rule="evenodd"/><path stroke="#ffffff" stroke-width="1.0" stroke-linejoin="round" stroke-linecap="butt" d="m285.87402 66.666664l66.06445 -1.4725876" fill-rule="evenodd"/><path fill="#ffffff" stroke="#ffffff" stroke-width="1.0" stroke-linecap="butt" d="m351.9753 66.8454l4.5001526 -1.752449l-4.573761 -1.5501938z" fill-rule="evenodd"/><path fill="#666666" d="m357.937 400.4252l217.25983 0l0 130.11026l-217.25983 0z" fill-rule="evenodd"/><path fill="#ffffff" d="m416.52798 454.93155q0 -0.953125 0.203125 -1.890625q0.21875 -0.953125 0.59375 -1.90625q0.390625 -0.953125 0.890625 -1.90625q0.5 -0.96875 1.09375 -1.953125l1.890625 0.796875q-0.296875 0.453125 -0.703125 1.234375q-0.390625 0.765625 -0.765625 1.71875q-0.359375 0.9375 -0.625 1.96875q-0.25 1.03125 -0.25 1.984375q0 1.515625 0.640625 3.140625q0.640625 1.625 1.65625 3.359375l-1.828125 0.90625q-0.578125 -0.859375 -1.09375 -1.78125q-0.515625 -0.921875 -0.890625 -1.875q-0.375 -0.953125 -0.59375 -1.890625q-0.21875 -0.953125 -0.21875 -1.90625zm5.3849487 -0.25q0 -1.203125 0.4375 -2.390625q0.4375 -1.1875 1.28125 -2.109375q0.84375 -0.9375 2.046875 -1.515625q1.21875 -0.59375 2.765625 -0.59375q1.828125 0 3.15625 0.8125q1.34375 0.796875 1.984375 2.09375l-1.96875 1.359375q-0.265625 -0.5625 -0.640625 -0.9375q-0.375 -0.390625 -0.8125 -0.609375q-0.421875 -0.234375 -0.890625 -0.328125q-0.453125 -0.109375 -0.90625 -0.109375q-0.96875 0 -1.6875 0.390625q-0.71875 0.390625 -1.203125 1.015625q-0.46875 0.625 -0.71875 1.421875q-0.234375 0.796875 -0.234375 1.578125q0 0.875 0.28125 1.6875q0.28125 0.8125 0.796875 1.4375q0.515625 0.609375 1.234375 0.984375q0.71875 0.359375 1.578125 0.359375q0.4375 0 0.921875 -0.109375q0.484375 -0.109375 0.921875 -0.34375q0.4375 -0.25 0.8125 -0.625q0.375 -0.390625 0.59375 -0.921875l2.109375 1.203125q-0.3125 0.75 -0.90625 1.328125q-0.578125 0.5625 -1.3125 0.953125q-0.734375 0.390625 -1.578125 0.59375q-0.84375 0.203125 -1.640625 0.203125q-1.421875 0 -2.59375 -0.59375q-1.171875 -0.59375 -2.03125 -1.546875q-0.84375 -0.96875 -1.328125 -2.1875q-0.46875 -1.234375 -0.46875 -2.5zm17.876312 6.90625q-1.203125 0 -2.15625 -0.40625q-0.9375 -0.421875 -1.609375 -1.109375q-0.65625 -0.703125 -1.015625 -1.609375q-0.359375 -0.921875 -0.359375 -1.9375q0 -1.015625 0.359375 -1.921875q0.359375 -0.921875 1.015625 -1.625q0.671875 -0.703125 1.609375 -1.109375q0.953125 -0.40625 2.15625 -0.40625q1.1875 0 2.125 0.40625q0.953125 0.40625 1.609375 1.109375q0.671875 0.703125 1.015625 1.625q0.359375 0.90625 0.359375 1.921875q0 1.015625 -0.359375 1.9375q-0.34375 0.90625 -1.0 1.609375q-0.65625 0.6875 -1.609375 1.109375q-0.953125 0.40625 -2.140625 0.40625zm-2.5625 -5.0625q0 0.65625 0.1875 1.1875q0.203125 0.53125 0.546875 0.921875q0.34375 0.390625 0.8125 0.609375q0.46875 0.21875 1.015625 0.21875q0.53125 0 1.0 -0.21875q0.46875 -0.21875 0.8125 -0.609375q0.34375 -0.390625 0.53125 -0.921875q0.203125 -0.546875 0.203125 -1.203125q0 -0.625 -0.203125 -1.171875q-0.1875 -0.546875 -0.53125 -0.9375q-0.34375 -0.390625 -0.8125 -0.59375q-0.46875 -0.21875 -1.0 -0.21875q-0.546875 0 -1.015625 0.21875q-0.46875 0.21875 -0.8125 0.625q-0.34375 0.390625 -0.546875 0.9375q-0.1875 0.53125 -0.1875 1.15625zm24.54007 4.875l-2.5 0l0 -5.484375q0 -1.171875 -0.40625 -1.71875q-0.40625 -0.546875 -1.109375 -0.546875q-0.75 0 -1.40625 0.578125q-0.640625 0.5625 -0.921875 1.484375l0 5.6875l-2.5 0l0 -5.484375q0 -1.171875 -0.40625 -1.71875q-0.40625 -0.546875 -1.109375 -0.546875q-0.71875 0 -1.390625 0.5625q-0.65625 0.5625 -0.9375 1.484375l0 5.703125l-2.5 0l0 -9.78125l2.25 0l0 1.8125q0.546875 -0.953125 1.484375 -1.453125q0.953125 -0.515625 2.15625 -0.515625q1.234375 0 1.90625 0.59375q0.671875 0.59375 0.859375 1.46875q0.59375 -1.0 1.5 -1.53125q0.921875 -0.53125 2.09375 -0.53125q0.90625 0 1.484375 0.34375q0.578125 0.328125 0.890625 0.875q0.3125 0.53125 0.4375 1.21875q0.125 0.6875 0.125 1.40625l0 6.09375zm8.0408325 0.1875q-1.15625 0 -2.015625 -0.515625q-0.859375 -0.515625 -1.34375 -1.390625l0 5.6875l-2.5 0l0 -13.75l2.1875 0l0 1.6875q0.53125 -0.859375 1.390625 -1.34375q0.859375 -0.5 1.984375 -0.5q0.984375 0 1.8125 0.40625q0.84375 0.390625 1.453125 1.078125q0.609375 0.671875 0.953125 1.59375q0.34375 0.921875 0.34375 1.953125q0 1.0625 -0.3125 2.0q-0.3125 0.921875 -0.890625 1.625q-0.5625 0.6875 -1.359375 1.078125q-0.78125 0.390625 -1.703125 0.390625zm-0.84375 -2.125q0.5625 0 1.03125 -0.234375q0.484375 -0.25 0.8125 -0.65625q0.34375 -0.421875 0.53125 -0.953125q0.1875 -0.546875 0.1875 -1.125q0 -0.609375 -0.21875 -1.140625q-0.203125 -0.53125 -0.5625 -0.921875q-0.359375 -0.40625 -0.859375 -0.625q-0.5 -0.21875 -1.078125 -0.21875q-0.34375 0 -0.71875 0.125q-0.375 0.109375 -0.703125 0.34375q-0.3125 0.21875 -0.5625 0.515625q-0.25 0.296875 -0.375 0.65625l0 2.296875q0.328125 0.828125 1.015625 1.390625q0.703125 0.546875 1.5 0.546875zm9.796814 2.125q-1.515625 0 -2.296875 -0.96875q-0.78125 -0.96875 -0.78125 -2.875l0 -6.125l2.5 0l0 5.578125q0 2.265625 1.625 2.265625q0.71875 0 1.390625 -0.4375q0.6875 -0.4375 1.125 -1.34375l0 -6.0625l2.5 0l0 6.90625q0 0.390625 0.140625 0.5625q0.140625 0.171875 0.453125 0.1875l0 2.125q-0.375 0.078125 -0.625 0.09375q-0.25 0.015625 -0.453125 0.015625q-0.671875 0 -1.09375 -0.296875q-0.421875 -0.3125 -0.5 -0.859375l-0.046875 -0.78125q-0.65625 1.0 -1.6875 1.515625q-1.015625 0.5 -2.25 0.5zm14.404572 -0.6875q-0.5 0.21875 -1.234375 0.453125q-0.734375 0.21875 -1.53125 0.21875q-0.515625 0 -0.984375 -0.140625q-0.453125 -0.125 -0.796875 -0.40625q-0.34375 -0.296875 -0.546875 -0.75q-0.203125 -0.453125 -0.203125 -1.109375l0 -5.625l-1.296875 0l0 -1.921875l1.296875 0l0 -3.171875l2.5 0l0 3.171875l2.046875 0l0 1.921875l-2.046875 0l0 4.78125q0 0.515625 0.265625 0.734375q0.265625 0.21875 0.65625 0.21875q0.390625 0 0.765625 -0.125q0.375 -0.140625 0.609375 -0.234375l0.5 1.984375zm5.593231 0.6875q-1.171875 0 -2.125 -0.390625q-0.953125 -0.40625 -1.625 -1.09375q-0.671875 -0.703125 -1.046875 -1.609375q-0.359375 -0.921875 -0.359375 -1.921875q0 -1.046875 0.359375 -1.96875q0.359375 -0.921875 1.03125 -1.625q0.671875 -0.703125 1.625 -1.109375q0.96875 -0.40625 2.15625 -0.40625q1.203125 0 2.140625 0.40625q0.9375 0.40625 1.59375 1.09375q0.671875 0.6875 1.015625 1.609375q0.34375 0.921875 0.34375 1.90625q0 0.234375 -0.015625 0.46875q0 0.21875 -0.03125 0.375l-7.5625 0q0.0625 0.578125 0.28125 1.03125q0.21875 0.4375 0.578125 0.75q0.359375 0.3125 0.796875 0.484375q0.453125 0.171875 0.9375 0.171875q0.75 0 1.40625 -0.359375q0.65625 -0.375 0.90625 -0.96875l2.140625 0.59375q-0.53125 1.125 -1.71875 1.84375q-1.1875 0.71875 -2.828125 0.71875zm2.53125 -5.890625q-0.09375 -1.109375 -0.8125 -1.765625q-0.71875 -0.671875 -1.734375 -0.671875q-0.5 0 -0.953125 0.1875q-0.4375 0.171875 -0.78125 0.5q-0.328125 0.3125 -0.546875 0.765625q-0.203125 0.4375 -0.234375 0.984375l5.0625 0zm9.925079 -1.90625q-1.125 0.015625 -2.03125 0.4375q-0.890625 0.421875 -1.28125 1.265625l0 5.90625l-2.5 0l0 -9.78125l2.296875 0l0 2.09375q0.25 -0.5 0.609375 -0.90625q0.359375 -0.40625 0.765625 -0.703125q0.40625 -0.296875 0.828125 -0.453125q0.421875 -0.15625 0.8125 -0.15625q0.203125 0 0.296875 0q0.109375 0 0.203125 0.015625l0 2.28125zm5.3918457 1.140625q0 0.953125 -0.21875 1.90625q-0.21875 0.9375 -0.59375 1.890625q-0.375 0.953125 -0.890625 1.875q-0.515625 0.921875 -1.09375 1.78125l-1.828125 -0.90625q1.03125 -1.734375 1.65625 -3.359375q0.640625 -1.625 0.640625 -3.140625q0 -0.953125 -0.265625 -1.984375q-0.25 -1.03125 -0.625 -1.96875q-0.359375 -0.953125 -0.765625 -1.71875q-0.390625 -0.78125 -0.6875 -1.234375l1.921875 -0.796875q0.578125 0.984375 1.078125 1.953125q0.5 0.953125 0.875 1.90625q0.375 0.953125 0.578125 1.90625q0.21875 0.9375 0.21875 1.890625z" fill-rule="nonzero"/><path fill="#ffffff" d="m434.47177 473.61905q-0.125 -0.125 -0.46875 -0.34375q-0.34375 -0.234375 -0.84375 -0.4375q-0.484375 -0.21875 -1.0625 -0.359375q-0.578125 -0.15625 -1.1875 -0.15625q-1.0625 0 -1.59375 0.390625q-0.515625 0.390625 -0.515625 1.09375q0 0.421875 0.203125 0.6875q0.203125 0.265625 0.5625 0.46875q0.375 0.203125 0.9375 0.375q0.578125 0.171875 1.328125 0.359375q0.96875 0.265625 1.75 0.5625q0.796875 0.296875 1.34375 0.75q0.5625 0.4375 0.859375 1.0625q0.296875 0.625 0.296875 1.546875q0 1.0625 -0.40625 1.8125q-0.390625 0.75 -1.078125 1.21875q-0.671875 0.46875 -1.5625 0.6875q-0.890625 0.21875 -1.859375 0.21875q-1.484375 0 -2.953125 -0.453125q-1.453125 -0.453125 -2.609375 -1.265625l1.140625 -2.21875q0.171875 0.15625 0.609375 0.4375q0.4375 0.265625 1.03125 0.546875q0.59375 0.265625 1.328125 0.453125q0.734375 0.171875 1.484375 0.171875q2.140625 0 2.140625 -1.359375q0 -0.421875 -0.25 -0.71875q-0.234375 -0.296875 -0.6875 -0.515625q-0.453125 -0.234375 -1.09375 -0.421875q-0.625 -0.1875 -1.40625 -0.40625q-0.953125 -0.265625 -1.65625 -0.5625q-0.703125 -0.3125 -1.171875 -0.734375q-0.453125 -0.421875 -0.6875 -0.96875q-0.234375 -0.546875 -0.234375 -1.3125q0 -1.015625 0.375 -1.796875q0.375 -0.78125 1.03125 -1.296875q0.65625 -0.53125 1.53125 -0.796875q0.890625 -0.28125 1.890625 -0.28125q1.40625 0 2.578125 0.4375q1.171875 0.4375 2.046875 1.046875l-1.140625 2.078125zm9.170654 9.96875q-1.15625 0 -2.015625 -0.515625q-0.859375 -0.515625 -1.34375 -1.390625l0 5.6875l-2.5 0l0 -13.75l2.1875 0l0 1.6875q0.53125 -0.859375 1.390625 -1.34375q0.859375 -0.5 1.984375 -0.5q0.984375 0 1.8125 0.40625q0.84375 0.390625 1.453125 1.078125q0.609375 0.671875 0.953125 1.59375q0.34375 0.921875 0.34375 1.953125q0 1.0625 -0.3125 2.0q-0.3125 0.921875 -0.890625 1.625q-0.5625 0.6875 -1.359375 1.078125q-0.78125 0.390625 -1.703125 0.390625zm-0.84375 -2.125q0.5625 0 1.03125 -0.234375q0.484375 -0.25 0.8125 -0.65625q0.34375 -0.421875 0.53125 -0.953125q0.1875 -0.546875 0.1875 -1.125q0 -0.609375 -0.21875 -1.140625q-0.203125 -0.53125 -0.5625 -0.921875q-0.359375 -0.40625 -0.859375 -0.625q-0.5 -0.21875 -1.078125 -0.21875q-0.34375 0 -0.71875 0.125q-0.375 0.109375 -0.703125 0.34375q-0.3125 0.21875 -0.5625 0.515625q-0.25 0.296875 -0.375 0.65625l0 2.296875q0.328125 0.828125 1.015625 1.390625q0.703125 0.546875 1.5 0.546875zm11.343689 2.125q-1.171875 0 -2.125 -0.390625q-0.953125 -0.40625 -1.625 -1.09375q-0.671875 -0.703125 -1.046875 -1.609375q-0.359375 -0.921875 -0.359375 -1.921875q0 -1.046875 0.359375 -1.96875q0.359375 -0.921875 1.03125 -1.625q0.671875 -0.703125 1.625 -1.109375q0.96875 -0.40625 2.15625 -0.40625q1.203125 0 2.140625 0.40625q0.9375 0.40625 1.59375 1.09375q0.671875 0.6875 1.015625 1.609375q0.34375 0.921875 0.34375 1.90625q0 0.234375 -0.015625 0.46875q0 0.21875 -0.03125 0.375l-7.5625 0q0.0625 0.578125 0.28125 1.03125q0.21875 0.4375 0.578125 0.75q0.359375 0.3125 0.796875 0.484375q0.453125 0.171875 0.9375 0.171875q0.75 0 1.40625 -0.359375q0.65625 -0.375 0.90625 -0.96875l2.140625 0.59375q-0.53125 1.125 -1.71875 1.84375q-1.1875 0.71875 -2.828125 0.71875zm2.53125 -5.890625q-0.09375 -1.109375 -0.8125 -1.765625q-0.71875 -0.671875 -1.734375 -0.671875q-0.5 0 -0.953125 0.1875q-0.4375 0.171875 -0.78125 0.5q-0.328125 0.3125 -0.546875 0.765625q-0.203125 0.4375 -0.234375 0.984375l5.0625 0zm6.784485 5.890625q-0.71875 0 -1.34375 -0.234375q-0.609375 -0.234375 -1.0625 -0.65625q-0.4375 -0.421875 -0.6875 -0.96875q-0.25 -0.5625 -0.25 -1.234375q0 -0.6875 0.296875 -1.28125q0.3125 -0.59375 0.859375 -1.0q0.5625 -0.40625 1.328125 -0.640625q0.765625 -0.234375 1.671875 -0.234375q0.65625 0 1.28125 0.109375q0.625 0.109375 1.109375 0.3125l0 -0.546875q0 -0.96875 -0.5625 -1.484375q-0.546875 -0.53125 -1.625 -0.53125q-0.78125 0 -1.53125 0.28125q-0.734375 0.265625 -1.53125 0.8125l-0.765625 -1.578125q1.890625 -1.25 4.078125 -1.25q2.109375 0 3.265625 1.03125q1.171875 1.03125 1.171875 3.0l0 3.03125q0 0.390625 0.140625 0.5625q0.140625 0.171875 0.453125 0.1875l0 2.125q-0.625 0.125 -1.09375 0.125q-0.71875 0 -1.109375 -0.3125q-0.375 -0.3125 -0.46875 -0.84375l-0.046875 -0.53125q-0.65625 0.859375 -1.59375 1.3125q-0.921875 0.4375 -1.984375 0.4375zm0.703125 -1.828125q0.640625 0 1.203125 -0.21875q0.5625 -0.234375 0.890625 -0.609375q0.40625 -0.3125 0.40625 -0.703125l0 -1.125q-0.453125 -0.15625 -0.984375 -0.265625q-0.515625 -0.109375 -1.0 -0.109375q-0.96875 0 -1.59375 0.453125q-0.609375 0.4375 -0.609375 1.109375q0 0.625 0.484375 1.046875q0.5 0.421875 1.203125 0.421875zm14.005554 1.640625l-2.828125 -4.234375l-1.34375 1.328125l0 2.90625l-2.5 0l0 -13.625l2.5 0l0 8.265625l3.921875 -4.390625l2.65625 0l-3.640625 4.140625l3.90625 5.609375l-2.671875 0zm7.765564 0.1875q-1.171875 0 -2.125 -0.390625q-0.953125 -0.40625 -1.625 -1.09375q-0.671875 -0.703125 -1.046875 -1.609375q-0.359375 -0.921875 -0.359375 -1.921875q0 -1.046875 0.359375 -1.96875q0.359375 -0.921875 1.03125 -1.625q0.671875 -0.703125 1.625 -1.109375q0.96875 -0.40625 2.15625 -0.40625q1.203125 0 2.140625 0.40625q0.9375 0.40625 1.59375 1.09375q0.671875 0.6875 1.015625 1.609375q0.34375 0.921875 0.34375 1.90625q0 0.234375 -0.015625 0.46875q0 0.21875 -0.03125 0.375l-7.5625 0q0.0625 0.578125 0.28125 1.03125q0.21875 0.4375 0.578125 0.75q0.359375 0.3125 0.796875 0.484375q0.453125 0.171875 0.9375 0.171875q0.75 0 1.40625 -0.359375q0.65625 -0.375 0.90625 -0.96875l2.140625 0.59375q-0.53125 1.125 -1.71875 1.84375q-1.1875 0.71875 -2.828125 0.71875zm2.53125 -5.890625q-0.09375 -1.109375 -0.8125 -1.765625q-0.71875 -0.671875 -1.734375 -0.671875q-0.5 0 -0.953125 0.1875q-0.4375 0.171875 -0.78125 0.5q-0.328125 0.3125 -0.546875 0.765625q-0.203125 0.4375 -0.234375 0.984375l5.0625 0zm9.92511 -1.90625q-1.125 0.015625 -2.03125 0.4375q-0.890625 0.421875 -1.28125 1.265625l0 5.90625l-2.5 0l0 -9.78125l2.296875 0l0 2.09375q0.25 -0.5 0.609375 -0.90625q0.359375 -0.40625 0.765625 -0.703125q0.40625 -0.296875 0.828125 -0.453125q0.421875 -0.15625 0.8125 -0.15625q0.203125 0 0.296875 0q0.109375 0 0.203125 0.015625l0 2.28125zm5.0949707 7.796875q-1.234375 0 -2.40625 -0.390625q-1.171875 -0.390625 -2.015625 -1.125l0.9375 -1.5625q0.890625 0.640625 1.734375 0.96875q0.859375 0.3125 1.703125 0.3125q0.734375 0 1.15625 -0.28125q0.4375 -0.28125 0.4375 -0.796875q0 -0.515625 -0.5 -0.75q-0.5 -0.25 -1.640625 -0.578125q-0.953125 -0.25 -1.625 -0.484375q-0.671875 -0.25 -1.078125 -0.5625q-0.40625 -0.3125 -0.59375 -0.703125q-0.1875 -0.40625 -0.1875 -0.96875q0 -0.75 0.28125 -1.34375q0.296875 -0.59375 0.8125 -1.015625q0.53125 -0.421875 1.21875 -0.640625q0.703125 -0.234375 1.53125 -0.234375q1.09375 0 2.046875 0.328125q0.96875 0.3125 1.765625 1.015625l-1.0 1.515625q-0.75 -0.5625 -1.453125 -0.8125q-0.6875 -0.265625 -1.375 -0.265625q-0.640625 0 -1.078125 0.265625q-0.421875 0.25 -0.421875 0.828125q0 0.265625 0.09375 0.4375q0.109375 0.15625 0.328125 0.296875q0.234375 0.125 0.59375 0.25q0.359375 0.125 0.90625 0.25q1.0 0.265625 1.71875 0.53125q0.71875 0.25 1.171875 0.59375q0.46875 0.328125 0.671875 0.765625q0.21875 0.4375 0.21875 1.0625q0 1.4375 -1.0625 2.265625q-1.0625 0.828125 -2.890625 0.828125z" fill-rule="nonzero"/><path fill="#000000" fill-opacity="0.0" d="m466.56693 330.31497l0 70.11023" fill-rule="evenodd"/><path stroke="#ffffff" stroke-width="1.0" stroke-linejoin="round" stroke-linecap="butt" d="m466.56693 330.31497l0 64.11023" fill-rule="evenodd"/><path fill="#ffffff" stroke="#ffffff" stroke-width="1.0" stroke-linecap="butt" d="m464.9152 394.4252l1.6517334 4.538086l1.6517334 -4.538086z" fill-rule="evenodd"/></g></svg>