<svg version="1.1" viewBox="0.0 0.0 913.7952755905512 422.32020997375326" fill="none" stroke="none" stroke-linecap="square" stroke-miterlimit="10" xmlns:xlink="http://www.w3.org/1999/xlink" xmlns="http://www.w3.org/2000/svg"><clipPath id="p.0"><path d="m0 0l913.7953 0l0 422.32022l-913.7953 0l0 -422.32022z" clip-rule="nonzero"/></clipPath><g clip-path="url(#p.0)"><path fill="#000000" fill-opacity="0.0" d="m0 0l913.7953 0l0 422.32022l-913.7953 0z" fill-rule="evenodd"/><path fill="#86dbc4" d="m-3.236089 -0.16535433l913.7953 0l0 427.24408l-913.7953 0z" fill-rule="evenodd"/><path fill="#ffffff" fill-opacity="0.3933" d="m26.637794 91.519684l0 0c0 -8.897438 7.212799 -16.110237 16.110237 -16.110237l0 0c4.2727013 0 8.370403 1.6973267 11.391659 4.718582c3.0212555 3.0212555 4.7185783 7.1189575 4.7185783 11.391655l0 0c0 8.897438 -7.212799 16.110237 -16.110237 16.110237l0 0c-8.897438 0 -16.110237 -7.212799 -16.110237 -16.110237z" fill-rule="evenodd"/><path fill="#ffffff" fill-opacity="0.3933" d="m130.85301 48.225723l0 0c0 -8.897438 7.212799 -16.110237 16.110245 -16.110237l0 0c4.272705 0 8.370407 1.6973228 11.391663 4.7185783c3.0212402 3.0212555 4.718567 7.1189575 4.718567 11.391659l0 0c0 8.897438 -7.212799 16.110237 -16.11023 16.110237l0 0c-8.897446 0 -16.110245 -7.212799 -16.110245 -16.110237z" fill-rule="evenodd"/><path fill="#ffffff" fill-opacity="0.3933" d="m80.33596 96.4462l0 0c0 -8.897438 7.212799 -16.110237 16.110237 -16.110237l0 0c4.2726974 0 8.370399 1.697319 11.391655 4.7185745c3.0212555 3.0212555 4.7185745 7.1189575 4.7185745 11.391663l0 0c0 8.897438 -7.2127914 16.11023 -16.11023 16.11023l0 0c-8.897438 0 -16.110237 -7.2127914 -16.110237 -16.11023z" fill-rule="evenodd"/><path fill="#ffffff" fill-opacity="0.3933" d="m177.06561 164.63518l0 0c0 -8.897446 7.212799 -16.110245 16.110245 -16.110245l0 0c4.27269 0 8.370392 1.6973267 11.391647 4.718582c3.0212555 3.0212555 4.718582 7.1189575 4.718582 11.391663l0 0c0 8.89743 -7.212799 16.11023 -16.11023 16.11023l0 0c-8.897446 0 -16.110245 -7.212799 -16.110245 -16.11023z" fill-rule="evenodd"/><path fill="#ffffff" fill-opacity="0.3933" d="m290.01575 48.225723l0 0c0 -8.897438 7.212799 -16.110237 16.11023 -16.110237l0 0c4.272705 0 8.370422 1.6973228 11.391663 4.7185783c3.0212708 3.0212555 4.718567 7.1189575 4.718567 11.391659l0 0c0 8.897438 -7.212799 16.110237 -16.11023 16.110237l0 0c-8.89743 0 -16.11023 -7.212799 -16.11023 -16.110237z" fill-rule="evenodd"/><path fill="#ffffff" fill-opacity="0.3933" d="m100.703415 160.66667l0 0c0 -8.897446 7.212799 -16.110245 16.110237 -16.110245l0 0c4.2726974 0 8.370399 1.6973267 11.391655 4.718582c3.0212555 3.0212555 4.718582 7.1189575 4.718582 11.391663l0 0c0 8.89743 -7.2128067 16.11023 -16.110237 16.11023l0 0c-8.897438 0 -16.110237 -7.212799 -16.110237 -16.11023z" fill-rule="evenodd"/><path fill="#ffffff" fill-opacity="0.3933" d="m237.74672 182.09186l0 0c0 -8.89743 7.212799 -16.11023 16.11023 -16.11023l0 0c4.2727203 0 8.370407 1.6973267 11.391678 4.718582c3.0212402 3.0212555 4.718567 7.1189575 4.718567 11.391647l0 0c0 8.897446 -7.212799 16.110245 -16.110245 16.110245l0 0c-8.89743 0 -16.11023 -7.212799 -16.11023 -16.110245z" fill-rule="evenodd"/><path fill="#ffffff" fill-opacity="0.1966" d="m274.01575 112.4462l0 0c0 -8.897438 7.212799 -16.110237 16.11023 -16.110237l0 0c4.272705 0 8.370422 1.697319 11.391663 4.7185745c3.0212708 3.0212555 4.718567 7.1189575 4.718567 11.391663l0 0c0 8.897438 -7.212799 16.11023 -16.11023 16.11023l0 0c-8.89743 0 -16.11023 -7.2127914 -16.11023 -16.11023z" fill-rule="evenodd"/><path fill="#ffffff" fill-opacity="0.3933" d="m171.64305 116.414696l0 0c0 -15.542244 12.599472 -28.141731 28.141724 -28.141731l0 0c7.4636536 0 14.621613 2.9649277 19.899216 8.242523c5.277588 5.2775955 8.242523 12.435562 8.242523 19.899208l0 0c0 15.542259 -12.599487 28.141731 -28.141739 28.141731l0 0c-15.542252 0 -28.141724 -12.599472 -28.141724 -28.141731z" fill-rule="evenodd"/><path fill="#ffffff" fill-opacity="0.3933" d="m213.37007 59.299213l0 0c0 -8.897438 7.212799 -16.110237 16.110245 -16.110237l0 0c4.272705 0 8.370407 1.6973228 11.391663 4.7185783c3.0212555 3.0212555 4.718567 7.1189575 4.718567 11.391659l0 0c0 8.897434 -7.212799 16.110233 -16.11023 16.110233l0 0c-8.897446 0 -16.110245 -7.212799 -16.110245 -16.110233z" fill-rule="evenodd"/><path fill="#ffffff" fill-opacity="0.1966" d="m80.509186 124.47769l0 0c0 -15.542252 12.59948 -28.141731 28.141731 -28.141731l0 0c7.4636536 0 14.621613 2.96492 19.899208 8.242523c5.277603 5.2775955 8.242523 12.4355545 8.242523 19.899208l0 0c0 15.542252 -12.59948 28.141724 -28.141731 28.141724l0 0c-15.542252 0 -28.141731 -12.599472 -28.141731 -28.141724z" fill-rule="evenodd"/><path fill="#ffffff" fill-opacity="0.3933" d="m394.563 213.4567l0 0c0 -15.542252 12.599487 -28.141739 28.141724 -28.141739l0 0c7.4636536 0 14.621613 2.9649353 19.899231 8.242523c5.277588 5.277603 8.242523 12.435562 8.242523 19.899216l0 0c0 15.542252 -12.599487 28.141724 -28.141754 28.141724l0 0c-15.542236 0 -28.141724 -12.599472 -28.141724 -28.141724z" fill-rule="evenodd"/><path fill="#ffffff" fill-opacity="0.1966" d="m132.92389 176.66667l0 0c0 -8.897446 7.212799 -16.110245 16.11023 -16.110245l0 0c4.272705 0 8.370407 1.6973267 11.391663 4.718582c3.0212555 3.0212555 4.718582 7.1189575 4.718582 11.391663l0 0c0 8.89743 -7.212799 16.11023 -16.110245 16.11023l0 0c-8.89743 0 -16.11023 -7.212799 -16.11023 -16.11023z" fill-rule="evenodd"/><path fill="#ffffff" fill-opacity="0.1966" d="m291.83203 172.2231l0 0c0 -8.897446 7.212799 -16.110245 16.11023 -16.110245l0 0c4.272705 0 8.370392 1.6973267 11.391663 4.718582c3.0212402 3.0212555 4.718567 7.1189575 4.718567 11.391663l0 0c0 8.89743 -7.212799 16.11023 -16.11023 16.11023l0 0c-8.89743 0 -16.11023 -7.212799 -16.11023 -16.11023z" fill-rule="evenodd"/><path fill="#ffffff" fill-opacity="0.1966" d="m60.32021 48.225723l0 0c0 -8.897438 7.2127953 -16.110237 16.110233 -16.110237l0 0c4.272705 0 8.370407 1.6973228 11.391663 4.7185783c3.0212555 3.0212555 4.7185745 7.1189575 4.7185745 11.391659l0 0c0 8.897438 -7.212799 16.110237 -16.110237 16.110237l0 0c-8.897438 0 -16.110233 -7.212799 -16.110233 -16.110237z" fill-rule="evenodd"/><path fill="#ffffff" fill-opacity="0.3933" d="m533.7848 311.7126l0 0c0 -8.89743 7.2127686 -16.11023 16.11023 -16.11023l0 0c4.272705 0 8.370422 1.6973267 11.391663 4.7185974c3.0212402 3.0212402 4.718567 7.1189575 4.718567 11.391632l0 0c0 8.897461 -7.2127686 16.11026 -16.11023 16.11026l0 0c-8.897461 0 -16.11023 -7.212799 -16.11023 -16.11026z" fill-rule="evenodd"/><path fill="#ffffff" fill-opacity="0.3933" d="m377.87927 112.444885l0 0c0 -8.897438 7.212799 -16.110237 16.11023 -16.110237l0 0c4.272705 0 8.370392 1.697319 11.391663 4.7185745c3.0212402 3.0212555 4.718567 7.1189575 4.718567 11.391663l0 0c0 8.897438 -7.212799 16.11023 -16.11023 16.11023l0 0c-8.89743 0 -16.11023 -7.2127914 -16.11023 -16.11023z" fill-rule="evenodd"/><path fill="#ffffff" fill-opacity="0.1966" d="m233.73228 91.51837l0 0c0 -15.542252 12.599487 -28.141731 28.141739 -28.141731l0 0c7.4636536 0 14.621613 2.9649277 19.8992 8.242523c5.277588 5.2775955 8.242523 12.4355545 8.242523 19.899208l0 0c0 15.542252 -12.599487 28.141731 -28.141724 28.141731l0 0c-15.542252 0 -28.141739 -12.59948 -28.141739 -28.141731z" fill-rule="evenodd"/><path fill="#ffffff" fill-opacity="0.3933" d="m441.67978 26.930447l0 0c0 -8.897438 7.212799 -16.110237 16.11026 -16.110237l0 0c4.2726746 0 8.370392 1.6973238 11.391632 4.7185793c3.0212708 3.0212545 4.7185974 7.1189566 4.7185974 11.391658l0 0c0 8.897438 -7.212799 16.110237 -16.11023 16.110237l0 0c-8.897461 0 -16.11026 -7.212799 -16.11026 -16.110237z" fill-rule="evenodd"/><path fill="#ffffff" fill-opacity="0.1966" d="m370.19946 48.22441l0 0c0 -15.542252 12.599487 -28.141733 28.141754 -28.141733l0 0c7.4636536 0 14.621613 2.9649239 19.8992 8.242521c5.277588 5.2775993 8.242523 12.435558 8.242523 19.899212l0 0c0 15.542248 -12.599487 28.141731 -28.141724 28.141731l0 0c-15.542267 0 -28.141754 -12.5994835 -28.141754 -28.141731z" fill-rule="evenodd"/><path fill="#ffffff" fill-opacity="0.1966" d="m624.8268 110.46063l0 0c0 -8.897438 7.2127686 -16.110237 16.11023 -16.110237l0 0c4.272705 0 8.370422 1.697319 11.391663 4.7185745c3.0212402 3.0212555 4.718567 7.1189575 4.718567 11.391663l0 0c0 8.897438 -7.2127686 16.110237 -16.11023 16.110237l0 0c-8.897461 0 -16.11023 -7.212799 -16.11023 -16.110237z" fill-rule="evenodd"/><path fill="#ffffff" fill-opacity="0.3933" d="m159.69292 123.019684l0 0c0 -8.897438 7.212799 -16.110237 16.11023 -16.110237l0 0c4.272705 0 8.370407 1.6973267 11.391663 4.718582c3.0212555 3.0212555 4.718582 7.1189575 4.718582 11.391655l0 0c0 8.897446 -7.212799 16.110245 -16.110245 16.110245l0 0c-8.89743 0 -16.11023 -7.212799 -16.11023 -16.110245z" fill-rule="evenodd"/><path fill="#ffffff" fill-opacity="0.3933" d="m48.115486 160.66536l0 0c0 -8.897446 7.212799 -16.110245 16.110237 -16.110245l0 0c4.2726974 0 8.370399 1.6973267 11.391655 4.718582c3.0212555 3.0212555 4.718582 7.1189575 4.718582 11.391663l0 0c0 8.89743 -7.212799 16.11023 -16.110237 16.11023l0 0c-8.897438 0 -16.110237 -7.212799 -16.110237 -16.11023z" fill-rule="evenodd"/><path fill="#ffffff" fill-opacity="0.3933" d="m119.1601 79.48688l0 0c0 -15.542252 12.59948 -28.141731 28.141731 -28.141731l0 0c7.4636536 0 14.621613 2.9649239 19.899216 8.242519c5.277603 5.2775993 8.242523 12.435558 8.242523 19.899212l0 0c0 15.542252 -12.599487 28.141731 -28.141739 28.141731l0 0c-15.542252 0 -28.141731 -12.59948 -28.141731 -28.141731z" fill-rule="evenodd"/><path fill="#ffffff" fill-opacity="0.1966" d="m306.23096 150.7979l0 0c0 -15.542252 12.599487 -28.141731 28.141754 -28.141731l0 0c7.4636536 0 14.621613 2.9649277 19.8992 8.242531c5.277588 5.277588 8.242523 12.435547 8.242523 19.8992l0 0c0 15.542252 -12.599487 28.141739 -28.141724 28.141739l0 0c-15.542267 0 -28.141754 -12.599487 -28.141754 -28.141739z" fill-rule="evenodd"/><path fill="#ffffff" fill-opacity="0.3933" d="m585.6286 34.16273l0 0c0 -8.89744 7.2128296 -16.110237 16.11023 -16.110237l0 0c4.272705 0 8.370422 1.6973228 11.391663 4.7185783c3.0212402 3.0212555 4.718567 7.1189575 4.718567 11.391659l0 0c0 8.897438 -7.2127686 16.110233 -16.11023 16.110233l0 0c-8.8974 0 -16.11023 -7.2127953 -16.11023 -16.110233z" fill-rule="evenodd"/><path fill="#ffffff" fill-opacity="0.3933" d="m700.7559 27.889763l0 0c0 -8.897436 7.2127686 -16.110235 16.11023 -16.110235l0 0c4.272705 0 8.370422 1.6973238 11.391663 4.7185783c3.0212402 3.0212555 4.718567 7.1189575 4.718567 11.391657l0 0c0 8.897438 -7.2128296 16.110237 -16.11023 16.110237l0 0c-8.897461 0 -16.11023 -7.212799 -16.11023 -16.110237z" fill-rule="evenodd"/><path fill="#ffffff" fill-opacity="0.1966" d="m725.69556 110.461945l0 0c0 -8.897438 7.2127686 -16.110237 16.11023 -16.110237l0 0c4.272705 0 8.370361 1.697319 11.391663 4.7185745c3.0212402 3.0212555 4.718567 7.1189575 4.718567 11.391663l0 0c0 8.897438 -7.2128296 16.110237 -16.11023 16.110237l0 0c-8.897461 0 -16.11023 -7.212799 -16.11023 -16.110237z" fill-rule="evenodd"/><path fill="#ffffff" fill-opacity="0.1966" d="m453.5 78.44095l0 0c0 -15.542252 12.599487 -28.141735 28.141724 -28.141735l0 0c7.4636536 0 14.621613 2.9649239 19.899231 8.242523c5.277588 5.2775955 8.242523 12.435558 8.242523 19.899212l0 0c0 15.542244 -12.599487 28.141731 -28.141754 28.141731l0 0c-15.542236 0 -28.141724 -12.599487 -28.141724 -28.141731z" fill-rule="evenodd"/><path fill="#ffffff" fill-opacity="0.1966" d="m764.55646 38.96194l0 0c0 -15.542248 12.599426 -28.141731 28.141724 -28.141731l0 0c7.463623 0 14.621582 2.9649248 19.89917 8.242523c5.277649 5.2775993 8.242554 12.435558 8.242554 19.899208l0 0c0 15.542252 -12.599487 28.141735 -28.141724 28.141735l0 0c-15.542297 0 -28.141724 -12.5994835 -28.141724 -28.141735z" fill-rule="evenodd"/><path fill="#ffffff" fill-opacity="0.1966" d="m657.04596 48.225723l0 0c0 -15.542252 12.599426 -28.141733 28.141724 -28.141733l0 0c7.463623 0 14.621582 2.9649239 19.89917 8.242521c5.277649 5.2775993 8.242554 12.435558 8.242554 19.899212l0 0c0 15.542248 -12.599487 28.141731 -28.141724 28.141731l0 0c-15.542297 0 -28.141724 -12.5994835 -28.141724 -28.141731z" fill-rule="evenodd"/><path fill="#ffffff" fill-opacity="0.1966" d="m471.38846 113.03543l0 0c0 -8.897438 7.212799 -16.110237 16.11023 -16.110237l0 0c4.272705 0 8.370392 1.6973267 11.391663 4.718582c3.0212402 3.0212555 4.718567 7.1189575 4.718567 11.391655l0 0c0 8.897438 -7.212799 16.110245 -16.11023 16.110245l0 0c-8.89743 0 -16.11023 -7.2128067 -16.11023 -16.110245z" fill-rule="evenodd"/><path fill="#ffffff" fill-opacity="0.3933" d="m754.73883 182.09055l0 0c0 -15.542252 12.599487 -28.141724 28.141724 -28.141724l0 0c7.463684 0 14.621643 2.96492 19.899231 8.242523c5.277588 5.277588 8.242554 12.435562 8.242554 19.8992l0 0c0 15.542252 -12.599487 28.141739 -28.141785 28.141739l0 0c-15.542236 0 -28.141724 -12.599487 -28.141724 -28.141739z" fill-rule="evenodd"/><path fill="#ffffff" fill-opacity="0.1966" d="m365.9777 176.66536l0 0c0 -8.897446 7.212799 -16.110245 16.11023 -16.110245l0 0c4.272705 0 8.370422 1.6973267 11.391663 4.718582c3.0212402 3.0212555 4.718567 7.1189575 4.718567 11.391663l0 0c0 8.89743 -7.212799 16.11023 -16.11023 16.11023l0 0c-8.89743 0 -16.11023 -7.212799 -16.11023 -16.11023z" fill-rule="evenodd"/><path fill="#ffffff" fill-opacity="0.3933" d="m514.83203 145.25722l0 0c0 -8.89743 7.2127686 -16.11023 16.11023 -16.11023l0 0c4.272705 0 8.370422 1.6973114 11.391663 4.718567c3.0212402 3.0212555 4.718567 7.1189575 4.718567 11.391663l0 0c0 8.897446 -7.2127686 16.11023 -16.11023 16.11023l0 0c-8.897461 0 -16.11023 -7.212784 -16.11023 -16.11023z" fill-rule="evenodd"/><path fill="#ffffff" fill-opacity="0.1966" d="m521.7533 57.343834l0 0c0 -15.542252 12.599487 -28.141735 28.141724 -28.141735l0 0c7.463623 0 14.621582 2.9649239 19.899231 8.242523c5.277588 5.2775993 8.242493 12.435558 8.242493 19.899212l0 0c0 15.542244 -12.599487 28.141731 -28.141724 28.141731l0 0c-15.542236 0 -28.141724 -12.599487 -28.141724 -28.141731z" fill-rule="evenodd"/><path fill="#ffffff" fill-opacity="0.1966" d="m611.8412 194.12335l0 0c0 -8.89743 7.2128296 -16.11023 16.11023 -16.11023l0 0c4.272705 0 8.370422 1.6973267 11.391663 4.718582c3.0213013 3.0212555 4.718628 7.1189575 4.718628 11.391647l0 0c0 8.897446 -7.2128296 16.110245 -16.11029 16.110245l0 0c-8.8974 0 -16.11023 -7.212799 -16.11023 -16.110245z" fill-rule="evenodd"/><path fill="#ffffff" fill-opacity="0.1966" d="m619.74146 172.69817l0 0c0 -15.542252 12.599487 -28.141739 28.141724 -28.141739l0 0c7.463684 0 14.621643 2.96492 19.899231 8.242523c5.277588 5.277603 8.242554 12.435562 8.242554 19.899216l0 0c0 15.542252 -12.599487 28.141724 -28.141785 28.141724l0 0c-15.542236 0 -28.141724 -12.599472 -28.141724 -28.141724z" fill-rule="evenodd"/><path fill="#ffffff" fill-opacity="0.3933" d="m731.4934 196.85564l0 0c0 8.897446 -7.2127686 16.110245 -16.11023 16.110245l0 0c-4.272705 0 -8.370361 -1.6973267 -11.391663 -4.718582c-3.0212402 -3.0212555 -4.718567 -7.1189575 -4.718567 -11.391663l0 0c0 -8.89743 7.2128296 -16.11023 16.11023 -16.11023l0 0c8.897461 0 16.11023 7.212799 16.11023 16.11023z" fill-rule="evenodd"/><path fill="#ffffff" fill-opacity="0.1966" d="m377.68634 84.41338l0 0c0 15.542252 -12.599457 28.141731 -28.141724 28.141731l0 0c-7.4636536 0 -14.621613 -2.96492 -19.8992 -8.242516c-5.2776184 -5.277603 -8.242523 -12.435562 -8.242523 -19.899216l0 0c0 -15.542244 12.599487 -28.141731 28.141724 -28.141731l0 0c15.542267 0 28.141724 12.599487 28.141724 28.141731z" fill-rule="evenodd"/><path fill="#ffffff" fill-opacity="0.1966" d="m521.3307 165.56299l0 0c0 15.542252 -12.599457 28.141739 -28.141724 28.141739l0 0c-7.4636536 0 -14.621613 -2.96492 -19.8992 -8.242523c-5.277588 -5.277603 -8.242523 -12.435562 -8.242523 -19.899216l0 0c0 -15.542252 12.599487 -28.141724 28.141724 -28.141724l0 0c15.542267 0 28.141724 12.599472 28.141724 28.141724z" fill-rule="evenodd"/><path fill="#ffffff" fill-opacity="0.1966" d="m668.76117 123.020996l0 0c0 -15.542252 12.599487 -28.141731 28.141724 -28.141731l0 0c7.463623 0 14.621582 2.9649277 19.899231 8.242523c5.277588 5.2775955 8.242493 12.4355545 8.242493 19.899208l0 0c0 15.542252 -12.599487 28.141739 -28.141724 28.141739l0 0c-15.542236 0 -28.141724 -12.599487 -28.141724 -28.141739z" fill-rule="evenodd"/><path fill="#ffffff" fill-opacity="0.3933" d="m573.59845 109.98163l0 0c0 -15.542252 12.599487 -28.141731 28.141724 -28.141731l0 0c7.463623 0 14.621582 2.96492 19.89917 8.242523c5.277649 5.2775955 8.242554 12.4355545 8.242554 19.899208l0 0c0 15.542252 -12.599487 28.141724 -28.141724 28.141724l0 0c-15.542236 0 -28.141724 -12.599472 -28.141724 -28.141724z" fill-rule="evenodd"/><path fill="#ffffff" fill-opacity="0.3933" d="m16.45013 280.74014l0 0c0 -8.89743 7.212799 -16.11023 16.110237 -16.11023l0 0c4.2727013 0 8.370403 1.6973267 11.391659 4.7185974c3.0212555 3.0212402 4.7185783 7.1189575 4.7185783 11.391632l0 0c0 8.897461 -7.212799 16.11026 -16.110237 16.11026l0 0c-8.897438 0 -16.110237 -7.212799 -16.110237 -16.11026z" fill-rule="evenodd"/><path fill="#ffffff" fill-opacity="0.3933" d="m126.60499 246.5643l0 0c0 -15.542252 12.59948 -28.141724 28.141731 -28.141724l0 0c7.4636536 0 14.621613 2.96492 19.899216 8.242523c5.277588 5.277588 8.242523 12.435547 8.242523 19.8992l0 0c0 15.542267 -12.599487 28.141724 -28.141739 28.141724l0 0c-15.542252 0 -28.141731 -12.599457 -28.141731 -28.141724z" fill-rule="evenodd"/><path fill="#ffffff" fill-opacity="0.1966" d="m52.59974 326.25723l0 0c0 -15.542267 12.59948 -28.141754 28.141731 -28.141754l0 0c7.4636536 0 14.621613 2.9649353 19.899208 8.242523c5.277603 5.2776184 8.242523 12.435577 8.242523 19.899231l0 0c0 15.542236 -12.59948 28.141724 -28.141731 28.141724l0 0c-15.542252 0 -28.141731 -12.599487 -28.141731 -28.141724z" fill-rule="evenodd"/><path fill="#ffffff" fill-opacity="0.1966" d="m50.132545 237.4462l0 0c0 -8.897446 7.212799 -16.110245 16.110237 -16.110245l0 0c4.2726974 0 8.370399 1.6973267 11.391655 4.718582c3.0212555 3.0212555 4.718582 7.1189575 4.718582 11.391663l0 0c0 8.89743 -7.212799 16.11023 -16.110237 16.11023l0 0c-8.897438 0 -16.110237 -7.212799 -16.110237 -16.11023z" fill-rule="evenodd"/><path fill="#ffffff" fill-opacity="0.1966" d="m610.97766 290.81497l0 0c0 -8.897461 7.2128296 -16.11026 16.11029 -16.11026l0 0c4.272705 0 8.370361 1.6973267 11.391663 4.7185974c3.0212402 3.0212402 4.718567 7.1189575 4.718567 11.391663l0 0c0 8.89743 -7.2128296 16.11023 -16.11023 16.11023l0 0c-8.897461 0 -16.11029 -7.212799 -16.11029 -16.11023z" fill-rule="evenodd"/><path fill="#ffffff" fill-opacity="0.3933" d="m150.19948 299.6811l0 0c0 -8.89743 7.212799 -16.11023 16.11023 -16.11023l0 0c4.272705 0 8.370407 1.6973267 11.391663 4.7185974c3.0212555 3.0212402 4.718582 7.1189575 4.718582 11.391632l0 0c0 8.897461 -7.212799 16.11026 -16.110245 16.11026l0 0c-8.89743 0 -16.11023 -7.212799 -16.11023 -16.11026z" fill-rule="evenodd"/><path fill="#ffffff" fill-opacity="0.3933" d="m397.21652 311.7126l0 0c0 -15.542236 12.599487 -28.141724 28.141754 -28.141724l0 0c7.4636536 0 14.621613 2.9649353 19.8992 8.242523c5.277588 5.277588 8.242523 12.435547 8.242523 19.8992l0 0c0 15.542267 -12.599487 28.141754 -28.141724 28.141754l0 0c-15.542267 0 -28.141754 -12.599487 -28.141754 -28.141754z" fill-rule="evenodd"/><path fill="#ffffff" fill-opacity="0.1966" d="m249.9462 258.65878l0 0c0 -15.542236 12.599487 -28.141724 28.141724 -28.141724l0 0c7.4636536 0 14.621613 2.96492 19.8992 8.242523c5.2776184 5.277603 8.242523 12.435562 8.242523 19.8992l0 0c0 15.542267 -12.599457 28.141754 -28.141724 28.141754l0 0c-15.542236 0 -28.141724 -12.599487 -28.141724 -28.141754z" fill-rule="evenodd"/><path fill="#ffffff" fill-opacity="0.3933" d="m575.4409 223.38321l0 0c0 -8.897446 7.2128296 -16.110245 16.11029 -16.110245l0 0c4.272644 0 8.370361 1.6973267 11.391602 4.718582c3.0213013 3.0212555 4.718628 7.1189575 4.718628 11.391663l0 0c0 8.89743 -7.2128296 16.11023 -16.11023 16.11023l0 0c-8.897461 0 -16.11029 -7.212799 -16.11029 -16.11023z" fill-rule="evenodd"/><path fill="#ffffff" fill-opacity="0.1966" d="m715.5079 299.6824l0 0c0 -8.89743 7.2127686 -16.11023 16.11023 -16.11023l0 0c4.272705 0 8.370422 1.6973267 11.391663 4.7185974c3.0212402 3.0212402 4.718567 7.1189575 4.718567 11.391632l0 0c0 8.897461 -7.2127686 16.11026 -16.11023 16.11026l0 0c-8.897461 0 -16.11023 -7.212799 -16.11023 -16.11026z" fill-rule="evenodd"/><path fill="#ffffff" fill-opacity="0.1966" d="m646.8583 237.4462l0 0c0 -15.542252 12.599487 -28.141739 28.141724 -28.141739l0 0c7.463623 0 14.621582 2.96492 19.899231 8.242523c5.277588 5.277603 8.242493 12.435562 8.242493 19.899216l0 0c0 15.542252 -12.599487 28.141724 -28.141724 28.141724l0 0c-15.542236 0 -28.141724 -12.599472 -28.141724 -28.141724z" fill-rule="evenodd"/><path fill="#ffffff" fill-opacity="0.1966" d="m511.5656 246.5643l0 0c0 -15.542252 12.599487 -28.141724 28.141724 -28.141724l0 0c7.463684 0 14.621643 2.96492 19.899231 8.242523c5.277588 5.277588 8.242493 12.435547 8.242493 19.8992l0 0c0 15.542267 -12.599487 28.141724 -28.141724 28.141724l0 0c-15.542236 0 -28.141724 -12.599457 -28.141724 -28.141724z" fill-rule="evenodd"/><path fill="#ffffff" fill-opacity="0.1966" d="m609.55383 361.91864l0 0c0 -15.542267 12.599426 -28.141724 28.141724 -28.141724l0 0c7.463623 0 14.621582 2.9649048 19.89917 8.242523c5.277649 5.277588 8.242554 12.435547 8.242554 19.8992l0 0c0 15.542236 -12.599487 28.141724 -28.141724 28.141724l0 0c-15.542297 0 -28.141724 -12.599487 -28.141724 -28.141724z" fill-rule="evenodd"/><path fill="#ffffff" fill-opacity="0.1966" d="m511.14304 354.78348l0 0c0 15.542236 -12.599487 28.141724 -28.141724 28.141724l0 0c-7.4636536 0 -14.621613 -2.9649353 -19.8992 -8.242523c-5.2776184 -5.277588 -8.242523 -12.435577 -8.242523 -19.8992l0 0c0 -15.542267 12.599487 -28.141754 28.141724 -28.141754l0 0c15.542236 0 28.141724 12.599487 28.141724 28.141754z" fill-rule="evenodd"/><path fill="#ffffff" fill-opacity="0.1966" d="m572.0971 299.6824l0 0c0 -15.542236 12.599487 -28.141724 28.141724 -28.141724l0 0c7.463684 0 14.621643 2.9649353 19.899231 8.242523c5.277588 5.277588 8.242493 12.435547 8.242493 19.8992l0 0c0 15.542267 -12.599487 28.141754 -28.141724 28.141754l0 0c-15.542236 0 -28.141724 -12.599487 -28.141724 -28.141754z" fill-rule="evenodd"/><path fill="#ffffff" fill-opacity="0.3933" d="m222.13649 316.91602l0 0c0 -15.542267 12.599472 -28.141724 28.141724 -28.141724l0 0c7.4636383 0 14.621628 2.9649048 19.899216 8.242523c5.277588 5.277588 8.242523 12.435547 8.242523 19.8992l0 0c0 15.542236 -12.599487 28.141724 -28.141739 28.141724l0 0c-15.542252 0 -28.141724 -12.599487 -28.141724 -28.141724z" fill-rule="evenodd"/><path fill="#ffffff" fill-opacity="0.3933" d="m43.816273 400.81366l0 0c0 -8.897461 7.212799 -16.11026 16.110237 -16.11026l0 0c4.2727013 0 8.370403 1.6973267 11.391659 4.7185974c3.0212555 3.0212402 4.7185745 7.1189575 4.7185745 11.391663l0 0c0 8.89743 -7.212799 16.11023 -16.110233 16.11023l0 0c-8.897438 0 -16.110237 -7.212799 -16.110237 -16.11023z" fill-rule="evenodd"/><path fill="#ffffff" fill-opacity="0.3933" d="m738.6903 258.65878l0 0c0 -8.89743 7.2127686 -16.11023 16.11023 -16.11023l0 0c4.272705 0 8.370361 1.6973267 11.391663 4.718582c3.0212402 3.0212555 4.718567 7.1189575 4.718567 11.391647l0 0c0 8.897461 -7.2128296 16.11026 -16.11023 16.11026l0 0c-8.897461 0 -16.11023 -7.212799 -16.11023 -16.11026z" fill-rule="evenodd"/><path fill="#ffffff" fill-opacity="0.3933" d="m688.1732 306.87927l0 0c0 -8.89743 7.2128296 -16.11023 16.11023 -16.11023l0 0c4.272705 0 8.370422 1.6972961 11.391663 4.718567c3.0212402 3.0212402 4.718567 7.1189575 4.718567 11.391663l0 0c0 8.89743 -7.2127686 16.11023 -16.11023 16.11023l0 0c-8.8974 0 -16.11023 -7.212799 -16.11023 -16.11023z" fill-rule="evenodd"/><path fill="#ffffff" fill-opacity="0.3933" d="m784.9029 375.06824l0 0c0 -8.89743 7.2127686 -16.11023 16.11023 -16.11023l0 0c4.272705 0 8.370422 1.6973267 11.391663 4.718567c3.0212402 3.0212708 4.718567 7.1189575 4.718567 11.391663l0 0c0 8.89743 -7.2127686 16.11023 -16.11023 16.11023l0 0c-8.897461 0 -16.11023 -7.212799 -16.11023 -16.11023z" fill-rule="evenodd"/><path fill="#ffffff" fill-opacity="0.3933" d="m189.3517 379.96063l0 0c0 -8.89743 7.212799 -16.11023 16.110245 -16.11023l0 0c4.272705 0 8.370407 1.6973267 11.391647 4.718567c3.0212555 3.0212708 4.718582 7.1189575 4.718582 11.391663l0 0c0 8.89743 -7.212799 16.11023 -16.11023 16.11023l0 0c-8.897446 0 -16.110245 -7.212799 -16.110245 -16.11023z" fill-rule="evenodd"/><path fill="#ffffff" fill-opacity="0.3933" d="m779.4803 326.84778l0 0c0 -15.542267 12.599487 -28.141754 28.141785 -28.141754l0 0c7.463623 0 14.621582 2.9649353 19.89917 8.242523c5.277588 5.2776184 8.242554 12.435577 8.242554 19.899231l0 0c0 15.542236 -12.599487 28.141724 -28.141724 28.141724l0 0c-15.542297 0 -28.141785 -12.599487 -28.141785 -28.141724z" fill-rule="evenodd"/><path fill="#ffffff" fill-opacity="0.3933" d="m821.20734 269.73227l0 0c0 -8.89743 7.2128296 -16.11023 16.11023 -16.11023l0 0c4.272705 0 8.370422 1.6973267 11.391663 4.7185974c3.0212402 3.0212402 4.718567 7.1189575 4.718567 11.391632l0 0c0 8.897461 -7.2127686 16.11026 -16.11023 16.11026l0 0c-8.8974 0 -16.11023 -7.212799 -16.11023 -16.11026z" fill-rule="evenodd"/><path fill="#ffffff" fill-opacity="0.1966" d="m324.0525 387.09973l0 0c0 -15.542236 12.599487 -28.141724 28.141724 -28.141724l0 0c7.4636536 0 14.621613 2.9649353 19.899231 8.242523c5.277588 5.277588 8.242523 12.435547 8.242523 19.8992l0 0c0 15.542267 -12.599487 28.141724 -28.141754 28.141724l0 0c-15.542236 0 -28.141724 -12.599457 -28.141724 -28.141724z" fill-rule="evenodd"/><path fill="#ffffff" fill-opacity="0.1966" d="m740.76117 387.09973l0 0c0 -8.89743 7.2127686 -16.11023 16.11023 -16.11023l0 0c4.272705 0 8.370422 1.6973267 11.391663 4.718567c3.0212402 3.0212708 4.718567 7.1189575 4.718567 11.391663l0 0c0 8.89743 -7.2128296 16.11023 -16.11023 16.11023l0 0c-8.897461 0 -16.11023 -7.212799 -16.11023 -16.11023z" fill-rule="evenodd"/><path fill="#ffffff" fill-opacity="0.1966" d="m668.1575 258.65878l0 0c0 -8.89743 7.2128296 -16.11023 16.11023 -16.11023l0 0c4.272705 0 8.370422 1.6973267 11.391663 4.718582c3.0212402 3.0212555 4.718567 7.1189575 4.718567 11.391647l0 0c0 8.897461 -7.2127686 16.11026 -16.11023 16.11026l0 0c-8.8974 0 -16.11023 -7.212799 -16.11023 -16.11026z" fill-rule="evenodd"/><path fill="#ffffff" fill-opacity="0.1966" d="m841.5696 301.95145l0 0c0 -15.542267 12.599426 -28.141724 28.141724 -28.141724l0 0c7.463623 0 14.621582 2.9649048 19.89917 8.242523c5.277649 5.277588 8.242554 12.435547 8.242554 19.8992l0 0c0 15.542236 -12.599487 28.141724 -28.141724 28.141724l0 0c-15.542297 0 -28.141724 -12.599487 -28.141724 -28.141724z" fill-rule="evenodd"/><path fill="#ffffff" fill-opacity="0.3933" d="m767.5302 333.45276l0 0c0 -8.89743 7.2127686 -16.11023 16.11023 -16.11023l0 0c4.272705 0 8.370361 1.6973267 11.391663 4.718567c3.0212402 3.0212708 4.718567 7.1189575 4.718567 11.391663l0 0c0 8.89743 -7.2128296 16.11023 -16.11023 16.11023l0 0c-8.897461 0 -16.11023 -7.212799 -16.11023 -16.11023z" fill-rule="evenodd"/><path fill="#ffffff" fill-opacity="0.3933" d="m655.95276 371.09842l0 0c0 -8.89743 7.2127686 -16.11023 16.11023 -16.11023l0 0c4.272705 0 8.370422 1.6973267 11.391663 4.718567c3.0212402 3.0212708 4.718567 7.1189575 4.718567 11.391663l0 0c0 8.89743 -7.2127686 16.11023 -16.11023 16.11023l0 0c-8.897461 0 -16.11023 -7.212799 -16.11023 -16.11023z" fill-rule="evenodd"/><path fill="#ffffff" fill-opacity="0.3933" d="m300.75592 265.40027l0 0c0 -15.542252 12.599457 -28.141739 28.141724 -28.141739l0 0c7.4636536 0 14.621613 2.96492 19.8992 8.242523c5.277588 5.277603 8.242523 12.435562 8.242523 19.899216l0 0c0 15.542236 -12.599487 28.141724 -28.141724 28.141724l0 0c-15.542267 0 -28.141724 -12.599487 -28.141724 -28.141724z" fill-rule="evenodd"/><path fill="#ffffff" fill-opacity="0.3933" d="m4.3556433 328.9462l0 0c0 -8.89743 7.212798 -16.11023 16.110237 -16.11023l0 0c4.2726994 0 8.370401 1.6973267 11.391657 4.718567c3.0212555 3.0212708 4.7185783 7.1189575 4.7185783 11.391663l0 0c0 8.89743 -7.212797 16.11023 -16.110235 16.11023l0 0c-8.897438 0 -16.110237 -7.212799 -16.110237 -16.11023z" fill-rule="evenodd"/><path fill="#ffffff" fill-opacity="0.1966" d="m79.97638 294.94226l0 0c0 -15.542267 12.59948 -28.141724 28.141731 -28.141724l0 0c7.4636536 0 14.621613 2.9649048 19.899208 8.242523c5.277603 5.277588 8.242523 12.435547 8.242523 19.8992l0 0c0 15.542236 -12.59948 28.141724 -28.141731 28.141724l0 0c-15.542252 0 -28.141731 -12.599487 -28.141731 -28.141724z" fill-rule="evenodd"/><path fill="#ffffff" fill-opacity="0.1966" d="m97.86483 329.53674l0 0c0 -8.89743 7.212799 -16.11023 16.110237 -16.11023l0 0c4.2726974 0 8.370399 1.6973267 11.391655 4.718567c3.0212631 3.0212708 4.7185745 7.1189575 4.7185745 11.391663l0 0c0 8.89743 -7.2127914 16.11023 -16.11023 16.11023l0 0c-8.897438 0 -16.110237 -7.212799 -16.110237 -16.11023z" fill-rule="evenodd"/><path fill="#ffffff" fill-opacity="0.3933" d="m141.3084 361.75854l0 0c0 -8.897461 7.212799 -16.11026 16.110245 -16.11026l0 0c4.27269 0 8.370392 1.6973267 11.391647 4.7185974c3.0212555 3.0212402 4.718582 7.1189575 4.718582 11.391663l0 0c0 8.89743 -7.212799 16.11023 -16.11023 16.11023l0 0c-8.897446 0 -16.110245 -7.212799 -16.110245 -16.11023z" fill-rule="evenodd"/><path fill="#ffffff" fill-opacity="0.1966" d="m148.22966 273.84515l0 0c0 -15.542267 12.599487 -28.141739 28.141724 -28.141739l0 0c7.4636536 0 14.621613 2.96492 19.899216 8.242523c5.277603 5.277603 8.242523 12.435562 8.242523 19.899216l0 0c0 15.542236 -12.599487 28.141724 -28.141739 28.141724l0 0c-15.542236 0 -28.141724 -12.599487 -28.141724 -28.141724z" fill-rule="evenodd"/><path fill="#ffffff" fill-opacity="0.1966" d="m147.80708 382.0643l0 0c0 15.542267 -12.599472 28.141724 -28.141731 28.141724l0 0c-7.463646 0 -14.621605 -2.9649048 -19.899208 -8.242523c-5.2775955 -5.277588 -8.242523 -12.435547 -8.242523 -19.8992l0 0c0 -15.542236 12.599487 -28.141724 28.141731 -28.141724l0 0c15.542259 0 28.141731 12.599487 28.141731 28.141724z" fill-rule="evenodd"/><path fill="#ffffff" fill-opacity="0.3933" d="m474.18634 382.0643l0 0c0 -8.89743 7.212799 -16.11023 16.11026 -16.11023l0 0c4.2726746 0 8.370392 1.6973267 11.391632 4.718567c3.0212708 3.0212708 4.7185974 7.1189575 4.7185974 11.391663l0 0c0 8.89743 -7.212799 16.11023 -16.11023 16.11023l0 0c-8.897461 0 -16.11026 -7.212799 -16.11026 -16.11023z" fill-rule="evenodd"/><path fill="#ffffff" fill-opacity="0.1966" d="m420.98688 233.81233l0 0c0 -8.89743 7.212799 -16.11023 16.11023 -16.11023l0 0c4.272705 0 8.370422 1.6973267 11.391663 4.718582c3.0212708 3.0212555 4.718567 7.1189575 4.718567 11.391647l0 0c0 8.897446 -7.212799 16.110245 -16.11023 16.110245l0 0c-8.89743 0 -16.11023 -7.212799 -16.11023 -16.110245z" fill-rule="evenodd"/><path fill="#ffffff" fill-opacity="0.3933" d="m336.17847 217.81102l0 0c0 -8.89743 7.212799 -16.11023 16.11026 -16.11023l0 0c4.2726746 0 8.370392 1.6973267 11.391632 4.718582c3.0212708 3.0212555 4.7185974 7.1189575 4.7185974 11.391647l0 0c0 8.897446 -7.212799 16.110245 -16.11023 16.110245l0 0c-8.897461 0 -16.11026 -7.212799 -16.11026 -16.110245z" fill-rule="evenodd"/><path fill="#ffffff" fill-opacity="0.3933" d="m304.51312 337.88583l0 0c0 -8.89743 7.212799 -16.11023 16.11023 -16.11023l0 0c4.272705 0 8.370422 1.6972961 11.391663 4.718567c3.0212708 3.0212402 4.718567 7.1189575 4.718567 11.391663l0 0c0 8.89743 -7.212799 16.11023 -16.11023 16.11023l0 0c-8.89743 0 -16.11023 -7.212799 -16.11023 -16.11023z" fill-rule="evenodd"/><path fill="#ffffff" fill-opacity="0.1966" d="m362.56955 366.65485l0 0c0 -8.89743 7.212799 -16.11023 16.11023 -16.11023l0 0c4.272705 0 8.370422 1.6973267 11.391663 4.718567c3.0212708 3.0212708 4.7185974 7.1189575 4.7185974 11.391663l0 0c0 8.897461 -7.212799 16.11026 -16.11026 16.11026l0 0c-8.89743 0 -16.11023 -7.212799 -16.11023 -16.11026z" fill-rule="evenodd"/><path fill="#ffffff" fill-opacity="0.3933" d="m292.41864 386.09186l0 0c0 -8.89743 7.212799 -16.11023 16.11023 -16.11023l0 0c4.272705 0 8.370392 1.6973267 11.391663 4.718567c3.0212402 3.0212708 4.718567 7.1189575 4.718567 11.391663l0 0c0 8.89743 -7.212799 16.11023 -16.11023 16.11023l0 0c-8.89743 0 -16.11023 -7.212799 -16.11023 -16.11023z" fill-rule="evenodd"/><path fill="#ffffff" fill-opacity="0.3933" d="m684.28217 164.4252l0 0c0 -8.897446 7.2127686 -16.110245 16.11023 -16.110245l0 0c4.272705 0 8.370422 1.6973267 11.391663 4.718582c3.0212402 3.0212555 4.718567 7.1189575 4.718567 11.391663l0 0c0 8.89743 -7.2127686 16.11023 -16.11023 16.11023l0 0c-8.897461 0 -16.11023 -7.212799 -16.11023 -16.11023z" fill-rule="evenodd"/><path fill="#ffffff" fill-opacity="0.1966" d="m720.5512 94.779526l0 0c0 -8.897438 7.2127686 -16.110237 16.11023 -16.110237l0 0c4.272705 0 8.370361 1.6973267 11.391663 4.718582c3.0212402 3.0212555 4.718567 7.1189575 4.718567 11.391655l0 0c0 8.897438 -7.2128296 16.110237 -16.11023 16.110237l0 0c-8.897461 0 -16.11023 -7.212799 -16.11023 -16.110237z" fill-rule="evenodd"/><path fill="#ffffff" fill-opacity="0.3933" d="m841.09845 195.79002l0 0c0 -15.542252 12.599487 -28.141724 28.141724 -28.141724l0 0c7.463623 0 14.621582 2.96492 19.89917 8.242523c5.277649 5.277588 8.242554 12.435547 8.242554 19.8992l0 0c0 15.542252 -12.599487 28.141739 -28.141724 28.141739l0 0c-15.542236 0 -28.141724 -12.599487 -28.141724 -28.141739z" fill-rule="evenodd"/><path fill="#ffffff" fill-opacity="0.1966" d="m738.36743 154.55643l0 0c0 -8.89743 7.2128296 -16.11023 16.11023 -16.11023l0 0c4.272705 0 8.370422 1.6973267 11.391663 4.718582c3.0213013 3.0212555 4.718628 7.1189575 4.718628 11.391647l0 0c0 8.897446 -7.2128296 16.110245 -16.11029 16.110245l0 0c-8.8974 0 -16.11023 -7.212799 -16.11023 -16.110245z" fill-rule="evenodd"/><path fill="#ffffff" fill-opacity="0.3933" d="m485.93832 290.81497l0 0c0 -8.897461 7.212799 -16.11026 16.11023 -16.11026l0 0c4.272705 0 8.370392 1.6973267 11.391632 4.7185974c3.0213013 3.0212402 4.718628 7.1189575 4.718628 11.391663l0 0c0 8.89743 -7.2128296 16.11023 -16.11026 16.11023l0 0c-8.89743 0 -16.11023 -7.212799 -16.11023 -16.11023z" fill-rule="evenodd"/><path fill="#ffffff" fill-opacity="0.1966" d="m532.20734 376.8622l0 0c0 -15.542267 12.599487 -28.141754 28.141724 -28.141754l0 0c7.463684 0 14.621643 2.9649353 19.899231 8.242523c5.277588 5.2776184 8.242493 12.435577 8.242493 19.899231l0 0c0 15.542236 -12.599426 28.141724 -28.141724 28.141724l0 0c-15.542236 0 -28.141724 -12.599487 -28.141724 -28.141724z" fill-rule="evenodd"/><path fill="#ffffff" fill-opacity="0.1966" d="m484.5092 255.04462l0 0c0 -15.542252 12.599487 -28.141724 28.141754 -28.141724l0 0c7.463623 0 14.621582 2.96492 19.89917 8.242523c5.277588 5.277588 8.242554 12.435547 8.242554 19.8992l0 0c0 15.542267 -12.599487 28.141724 -28.141724 28.141724l0 0c-15.542267 0 -28.141754 -12.599457 -28.141754 -28.141724z" fill-rule="evenodd"/><path fill="#ffffff" fill-opacity="0.1966" d="m812.5131 158.99869l0 0c0 -8.89743 7.2128296 -16.11023 16.11023 -16.11023l0 0c4.272705 0 8.370422 1.6973114 11.391663 4.718567c3.0212402 3.0212555 4.718567 7.1189575 4.718567 11.391663l0 0c0 8.89743 -7.2127686 16.11023 -16.11023 16.11023l0 0c-8.8974 0 -16.11023 -7.212799 -16.11023 -16.11023z" fill-rule="evenodd"/><path fill="#ffffff" fill-opacity="0.1966" d="m848.62335 73.43964l0 0c0 15.542244 -12.599487 28.141731 -28.141724 28.141731l0 0c-7.463623 0 -14.621582 -2.9649277 -19.899231 -8.242523c-5.277588 -5.277603 -8.242493 -12.435562 -8.242493 -19.899208l0 0c0 -15.542252 12.599487 -28.141735 28.141724 -28.141735l0 0c15.542236 0 28.141724 12.5994835 28.141724 28.141735z" fill-rule="evenodd"/><path fill="#ffffff" fill-opacity="0.3933" d="m782.7139 200.14436l0 0c0 -8.897446 7.2127686 -16.110245 16.11023 -16.110245l0 0c4.272705 0 8.370361 1.6973267 11.391663 4.718582c3.0212402 3.0212555 4.718567 7.1189575 4.718567 11.391663l0 0c0 8.89743 -7.2128296 16.11023 -16.11023 16.11023l0 0c-8.897461 0 -16.11023 -7.212799 -16.11023 -16.11023z" fill-rule="evenodd"/><path fill="#ffffff" fill-opacity="0.3933" d="m858.07086 119.8937l0 0c0 -8.897438 7.2128296 -16.110237 16.11023 -16.110237l0 0c4.272705 0 8.370422 1.6973267 11.391663 4.718582c3.0212402 3.0212555 4.718567 7.1189575 4.718567 11.391655l0 0c0 8.897438 -7.2127686 16.110237 -16.11023 16.110237l0 0c-8.8974 0 -16.11023 -7.212799 -16.11023 -16.110237z" fill-rule="evenodd"/><path fill="#ffffff" fill-opacity="0.3933" d="m781.7087 115.92519l0 0c0 -8.897438 7.2127686 -16.11023 16.11023 -16.11023l0 0c4.272705 0 8.370361 1.697319 11.391663 4.7185745c3.0212402 3.0212555 4.718567 7.1189575 4.718567 11.391655l0 0c0 8.897438 -7.2128296 16.110237 -16.11023 16.110237l0 0c-8.897461 0 -16.11023 -7.212799 -16.11023 -16.110237z" fill-rule="evenodd"/><path fill="#ffffff" fill-opacity="0.1966" d="m813.92914 131.9252l0 0c0 -8.897446 7.2127686 -16.110237 16.11023 -16.110237l0 0c4.272705 0 8.370422 1.697319 11.391663 4.7185745c3.0212402 3.0212555 4.718567 7.1189575 4.718567 11.391663l0 0c0 8.89743 -7.2127686 16.11023 -16.11023 16.11023l0 0c-8.897461 0 -16.11023 -7.212799 -16.11023 -16.11023z" fill-rule="evenodd"/><path fill="#ffffff" fill-opacity="0.3933" d="m865.1627 34.16273l0 0c0 -8.89744 7.2128296 -16.110237 16.11023 -16.110237l0 0c4.272705 0 8.370422 1.6973228 11.391663 4.7185783c3.0212402 3.0212555 4.718567 7.1189575 4.718567 11.391659l0 0c0 8.897438 -7.2127686 16.110233 -16.11023 16.110233l0 0c-8.8974 0 -16.11023 -7.2127953 -16.11023 -16.110233z" fill-rule="evenodd"/><path fill="#ffffff" fill-opacity="0.1966" d="m871.7152 282.91077l0 0c0 -8.89743 7.2128296 -16.11023 16.11023 -16.11023l0 0c4.272705 0 8.370422 1.6973267 11.391663 4.718567c3.0212402 3.0212402 4.718567 7.1189575 4.718567 11.391663l0 0c0 8.89743 -7.2127686 16.11023 -16.11023 16.11023l0 0c-8.8974 0 -16.11023 -7.212799 -16.11023 -16.11023z" fill-rule="evenodd"/><path fill="#ffffff" fill-opacity="0.1966" d="m825.5696 387.09973l0 0c0 -15.542236 12.599426 -28.141724 28.141724 -28.141724l0 0c7.463623 0 14.621582 2.9649353 19.89917 8.242523c5.277649 5.277588 8.242554 12.435547 8.242554 19.8992l0 0c0 15.542267 -12.599487 28.141724 -28.141724 28.141724l0 0c-15.542297 0 -28.141724 -12.599457 -28.141724 -28.141724z" fill-rule="evenodd"/><path fill="#ffffff" fill-opacity="0.3933" d="m680.79266 406.1706l0 0c0 -8.89743 7.2127686 -16.11023 16.11023 -16.11023l0 0c4.272705 0 8.370422 1.6973267 11.391663 4.7185974c3.0212402 3.0212402 4.718567 7.118927 4.718567 11.391632l0 0c0 8.897461 -7.2127686 16.11026 -16.11023 16.11026l0 0c-8.897461 0 -16.11023 -7.212799 -16.11023 -16.11026z" fill-rule="evenodd"/><path fill="#ffffff" fill-opacity="0.3933" d="m700.5735 356.52362l0 0c0 -8.89743 7.2128296 -16.11023 16.11023 -16.11023l0 0c4.272705 0 8.370422 1.6973267 11.391663 4.718567c3.0212402 3.0212708 4.718567 7.1189575 4.718567 11.391663l0 0c0 8.89743 -7.2127686 16.11023 -16.11023 16.11023l0 0c-8.8974 0 -16.11023 -7.212799 -16.11023 -16.11023z" fill-rule="evenodd"/></g></svg>